<svg width="254" height="180" viewBox="0 0 254 180" fill="none" xmlns="http://www.w3.org/2000/svg">
<path d="M181.865 63.6958L174.99 77.6365C174.065 79.5124 173.584 81.5759 173.584 83.6674L173.584 89.7318L173.584 95.7962C173.584 97.8878 174.065 99.9513 174.99 101.827L181.865 115.768C184.161 120.424 188.902 123.373 194.094 123.373L212.038 123.373C216.027 123.373 219.816 121.626 222.407 118.593L232.475 106.805C233.905 105.132 234.908 103.137 235.399 100.991L237.976 89.7318L235.399 78.4721C234.908 76.3265 233.905 74.3317 232.475 72.6581L222.407 60.8706C219.816 57.8375 216.027 56.0908 212.038 56.0908L194.094 56.0908C188.902 56.0908 184.161 59.0393 181.865 63.6958Z" fill="#E62378"/>
<path d="M237.976 89.7318L235.399 78.4721C234.908 76.3265 233.905 74.3317 232.475 72.6581L222.407 60.8706C219.816 57.8375 216.027 56.0908 212.038 56.0908L194.094 56.0908C188.902 56.0908 184.161 59.0393 181.865 63.6958L174.99 77.6365C174.065 79.5124 173.584 81.5759 173.584 83.6674L173.584 89.7318M237.976 89.7318L235.399 100.991C234.908 103.137 233.905 105.132 232.475 106.805L222.407 118.593C219.816 121.626 216.027 123.373 212.038 123.373L194.094 123.373C188.902 123.373 184.161 120.424 181.865 115.768L174.99 101.827C174.065 99.9513 173.584 97.8878 173.584 95.7962L173.584 89.7318M237.976 89.7318L173.584 89.7318" stroke="#121212" stroke-width="2.26664" stroke-linecap="round" stroke-linejoin="round"/>
<path d="M181.865 63.6958L174.357 78.9205C173.848 79.9517 173.584 81.086 173.584 82.2358C173.584 86.3757 176.94 89.7318 181.08 89.7318L225.515 89.7318C231.894 89.7318 236.619 83.8033 235.196 77.5848C234.838 76.0221 234.107 74.5692 233.066 73.3503L222.407 60.8706C219.816 57.8375 216.027 56.0908 212.038 56.0908L194.094 56.0908C188.902 56.0908 184.161 59.0393 181.865 63.6958Z" fill="#EB4D9C" stroke="#121212" stroke-width="2.26664" stroke-linecap="round" stroke-linejoin="round"/>
<path d="M240.181 88.9218L240.069 88.8532C237.825 87.4833 234.946 89.0984 234.946 91.7275C234.946 94.3566 237.824 95.9718 240.069 94.6019L241.162 93.9341C241.804 93.5426 242.541 93.3355 243.292 93.3355L244.387 93.3355C248.796 93.3355 252.37 89.7615 252.37 85.3526L252.37 78.4306C252.37 77.5939 251.692 76.9155 250.855 76.9155C250.018 76.9155 249.34 77.5939 249.34 78.4306L249.34 83.1707C249.34 86.6253 246.539 89.4259 243.085 89.4259L241.974 89.4259C241.341 89.4259 240.721 89.2515 240.181 88.9218Z" fill="#AA2C19" stroke="#121212" stroke-width="2.26664" stroke-linecap="round" stroke-linejoin="round"/>
<path d="M77.3121 155.079L132.299 96.9405C132.504 96.723 132.85 96.723 133.056 96.9405L164.138 129.804C167.951 133.835 167.951 140.143 164.138 144.175L162.979 145.4C159.483 149.097 153.598 149.097 150.101 145.4L148.26 143.453C145.763 140.813 141.561 140.813 139.063 143.453C136.755 145.893 136.755 149.711 139.063 152.152L141.01 154.21C144.411 157.805 144.411 163.431 141.01 167.026L140.096 167.993C135.862 172.47 128.735 172.47 124.501 167.993L120.615 163.884C115.235 158.196 106.181 158.196 100.802 163.884L94.1065 170.963C89.5465 175.784 81.8721 175.784 77.3121 170.963C73.0977 166.507 73.0977 159.535 77.3121 155.079Z" stroke="#121212" stroke-width="2.26664" stroke-linecap="round" stroke-linejoin="round"/>
<path d="M77.3121 155.079L132.299 96.9405C132.504 96.723 132.85 96.723 133.056 96.9405L164.138 129.804C167.951 133.835 167.951 140.143 164.138 144.175L162.979 145.4C159.483 149.097 153.598 149.097 150.101 145.4L148.26 143.453C145.763 140.813 141.561 140.813 139.063 143.453C136.755 145.893 136.755 149.711 139.063 152.152L141.01 154.21C144.411 157.805 144.411 163.431 141.01 167.026L140.096 167.993C135.862 172.47 128.735 172.47 124.501 167.993L120.615 163.884C115.235 158.196 106.181 158.196 100.802 163.884L94.1065 170.963C89.5465 175.784 81.8721 175.784 77.3121 170.963C73.0977 166.507 73.0977 159.535 77.3121 155.079Z" fill="#0180A7" stroke="#121212" stroke-width="2.26664" stroke-linecap="round" stroke-linejoin="round"/>
<path d="M173.206 95.7378L151.806 95.7378C148.058 95.7378 144.475 97.2807 141.899 100.004L131.162 111.357M84.9512 160.216L108.435 135.386M108.435 135.386L131.919 160.216M108.435 135.386L131.162 111.357M131.162 111.357L148.585 129.779" stroke="#121212" stroke-width="2.26664" stroke-linecap="round" stroke-linejoin="round"/>
<path d="M77.3121 24.7842L132.299 82.9228C132.504 83.1402 132.85 83.1402 133.056 82.9228L164.138 50.0596C167.951 46.028 167.951 39.7201 164.138 35.6885L162.979 34.4638C159.483 30.7666 153.598 30.7666 150.101 34.4638L148.26 36.41C145.763 39.0503 141.561 39.0503 139.063 36.41C136.755 33.9698 136.755 30.1519 139.063 27.7117L141.01 25.653C144.411 22.0578 144.411 16.4327 141.01 12.8374L140.096 11.8706C135.862 7.39356 128.735 7.39356 124.501 11.8706L120.615 15.9793C115.235 21.6675 106.181 21.6675 100.802 15.9793L94.1065 8.90038C89.5465 4.07897 81.8721 4.07896 77.3121 8.90038C73.0977 13.3564 73.0977 20.3283 77.3121 24.7842Z" fill="#0180A7" stroke="#121212" stroke-width="2.26664" stroke-linecap="round" stroke-linejoin="round"/>
<path d="M173.206 84.1245L151.806 84.1245C148.058 84.1245 144.475 82.5816 141.899 79.8584L131.162 68.5055M84.9512 19.646L108.435 44.4762M108.435 44.4762L131.919 19.646M108.435 44.4762L131.162 68.5055M131.162 68.5055L148.585 50.0831" stroke="#121212" stroke-width="2.26664" stroke-linecap="round" stroke-linejoin="round"/>
<path d="M72.5657 148.083L118.026 100.016C123.042 94.713 122.991 86.4 117.912 81.1577L71.189 32.9401C67.1288 28.7499 60.3943 28.7907 56.3851 33.0297C52.6487 36.9804 52.6487 43.1616 56.3851 47.1122L60.3423 51.2962C62.2488 53.312 62.2488 56.466 60.3423 58.4818C58.2794 60.6629 54.8077 60.6629 52.7448 58.4818L48.7787 54.2883C44.562 49.8299 37.4655 49.8299 33.2489 54.2883L29.9785 57.7462C27.4568 60.4124 27.4568 64.5841 29.9785 67.2504C34.1486 71.6596 31.0228 78.9183 24.954 78.9183L13.0134 78.9183C6.93087 78.9183 2 83.8491 2 89.9317C2 96.0142 6.93086 100.945 13.0134 100.945L24.954 100.945C31.0228 100.945 34.1486 108.204 29.9785 112.613C27.4568 115.279 27.4568 119.451 29.9785 122.117L33.2489 125.575C37.4655 130.033 44.562 130.033 48.7787 125.575L52.7448 121.382C54.8077 119.2 58.2794 119.2 60.3423 121.382C62.2488 123.397 62.2488 126.551 60.3423 128.567L56.3711 132.766C52.5584 136.797 52.2918 143.019 55.7456 147.362C59.9659 152.668 67.9068 153.008 72.5657 148.083Z" fill="#829DE1" stroke="#121212" stroke-width="2.26664" stroke-linecap="round" stroke-linejoin="round"/>
<path d="M173.585 90.5326L111.465 90.5326M12.2266 90.5326L66.0125 90.5326M66.0125 90.5326L41.771 116.164M66.0125 90.5326L41.771 64.9014M66.0125 90.5326L111.465 90.5326M111.465 90.5326L88.739 114.562M111.465 90.5326L88.739 66.5034M66.0125 138.591L88.739 114.562M88.739 114.562L77.7546 102.948M66.0125 42.4741L88.739 66.5034M88.739 66.5034L77.7546 78.1175" stroke="#121212" stroke-width="2.26664" stroke-linecap="round" stroke-linejoin="round"/>
</svg>
