<svg width="82" height="140" viewBox="0 0 82 140" fill="none" xmlns="http://www.w3.org/2000/svg">
<path d="M54.2485 126.02L73.2647 126.02C74.8092 126.02 76.0367 124.722 75.9515 123.18L73.6568 81.667C73.6468 81.4873 73.6189 81.3091 73.5734 81.1351L66.1484 52.7264C65.434 49.9929 61.5278 50.0671 60.9177 52.8258L53.0634 88.3408C53.0294 88.4949 53.0089 88.6516 53.0023 88.8092L51.5601 123.216C51.496 124.745 52.7182 126.02 54.2485 126.02Z" fill="#01A755" stroke="black" stroke-width="1.5" stroke-linecap="round"/>
<path d="M53.0053 88.9558L51.7456 118.769C51.7026 119.788 52.5175 120.638 53.5379 120.638L62.2245 120.638C63.2078 120.638 64.0079 119.846 64.0182 118.863L64.7161 52.5659C64.7388 50.4114 61.6397 50.054 61.1713 52.157L53.0466 88.6416C53.0236 88.7449 53.0098 88.85 53.0053 88.9558Z" fill="#038A47" stroke="black" stroke-width="1.5" stroke-linecap="round"/>
<path d="M52.8626 126.559C51.872 125.857 51.4371 124.603 51.7806 123.439L55.0572 112.338C55.4088 111.147 56.494 110.323 57.7358 110.304L69.1333 110.133C70.3576 110.115 71.4556 110.883 71.8569 112.04L75.6853 123.078C76.0866 124.235 75.7008 125.519 74.7279 126.263L65.6721 133.185C64.6853 133.939 63.3229 133.964 62.3092 133.246L52.8626 126.559Z" fill="#98D3B6" stroke="black" stroke-width="1.5"/>
<circle cx="64.8783" cy="125.786" r="1.94082" transform="rotate(165 64.8783 125.786)" fill="#FFF4E7" stroke="black" stroke-width="1.5"/>
<circle cx="68.3665" cy="119.744" r="1.94082" transform="rotate(165 68.3665 119.744)" fill="#FFF4E7" stroke="black" stroke-width="1.5"/>
<circle cx="58.4037" cy="122.414" r="1.94082" transform="rotate(165 58.4037 122.414)" fill="#FFF4E7" stroke="black" stroke-width="1.5"/>
<circle cx="62.2093" cy="115.823" r="1.94082" transform="rotate(165 62.2093 115.823)" fill="#FFF4E7" stroke="black" stroke-width="1.5"/>
<path d="M50.2436 13.2266L31.2275 13.2266C29.683 13.2266 28.4555 14.5238 28.5407 16.0659L30.8354 57.5791C30.8454 57.7588 30.8733 57.937 30.9188 58.111L38.3438 86.5197C39.0582 89.2532 42.9644 89.179 43.5745 86.4203L51.4288 50.9052C51.4628 50.7512 51.4833 50.5945 51.4899 50.4369L52.9321 16.0301C52.9962 14.5011 51.774 13.2266 50.2436 13.2266Z" fill="#01A755" stroke="black" stroke-width="1.5" stroke-linecap="round"/>
<path d="M51.4869 50.2908L52.7466 20.478C52.7896 19.4585 51.9747 18.6084 50.9543 18.6084L42.2677 18.6084C41.2844 18.6084 40.4843 19.4001 40.474 20.3834L39.7761 86.6807C39.7534 88.8351 42.8525 89.1926 43.3208 87.0896L51.4456 50.605C51.4686 50.5017 51.4824 50.3965 51.4869 50.2908Z" fill="#038A47" stroke="black" stroke-width="1.5" stroke-linecap="round"/>
<path d="M51.6296 12.6879C52.6201 13.3893 53.0551 14.6432 52.7115 15.8073L49.435 26.9081C49.0833 28.0993 47.9982 28.9234 46.7564 28.9422L35.3589 29.1134C34.1346 29.1317 33.0365 28.3631 32.6353 27.2063L28.8069 16.1688C28.4056 15.0118 28.7914 13.7275 29.7643 12.9838L38.8201 6.06169C39.8069 5.3074 41.1692 5.28259 42.183 6.00024L51.6296 12.6879Z" fill="#98D3B6" stroke="black" stroke-width="1.5"/>
<circle cx="39.6134" cy="13.4603" r="1.94082" transform="rotate(-15 39.6134 13.4603)" fill="#FFF4E7" stroke="black" stroke-width="1.5"/>
<circle cx="36.1252" cy="19.5028" r="1.94082" transform="rotate(-15 36.1252 19.5028)" fill="#FFF4E7" stroke="black" stroke-width="1.5"/>
<circle cx="46.0885" cy="16.8329" r="1.94082" transform="rotate(-15 46.0885 16.8329)" fill="#FFF4E7" stroke="black" stroke-width="1.5"/>
<circle cx="42.2829" cy="23.4237" r="1.94082" transform="rotate(-15 42.2829 23.4237)" fill="#FFF4E7" stroke="black" stroke-width="1.5"/>
<path d="M27.4829 126.773H8.46671C6.92225 126.773 5.69475 125.476 5.77999 123.934L8.0747 82.4209C8.08463 82.2412 8.11255 82.063 8.15805 81.889L15.583 53.4803C16.2975 50.7468 20.2036 50.821 20.8137 53.5797L28.668 89.0948C28.7021 89.2488 28.7225 89.4055 28.7291 89.5631L30.1714 123.97C30.2354 125.499 29.0132 126.773 27.4829 126.773Z" fill="#01A755" stroke="black" stroke-width="1.5" stroke-linecap="round"/>
<path d="M28.7261 89.7092L29.9858 119.522C30.0289 120.542 29.214 121.392 28.1935 121.392H19.507C18.5236 121.392 17.7236 120.6 17.7132 119.617L17.0153 53.3193C16.9927 51.1649 20.0918 50.8074 20.5601 52.9104L28.6848 89.395C28.7078 89.4983 28.7216 89.6035 28.7261 89.7092Z" fill="#038A47" stroke="black" stroke-width="1.5" stroke-linecap="round"/>
<path d="M28.8688 127.312C29.8594 126.611 30.2944 125.357 29.9508 124.193L26.6742 113.092C26.3226 111.901 25.2375 111.077 23.9956 111.058L12.5982 110.887C11.3739 110.868 10.2758 111.637 9.87455 112.794L6.04612 123.831C5.64484 124.988 6.0307 126.272 7.00352 127.016L16.0594 133.938C17.0461 134.693 18.4085 134.717 19.4222 134L28.8688 127.312Z" fill="#98D3B6" stroke="black" stroke-width="1.5"/>
<circle cx="2.69082" cy="2.69082" r="1.94082" transform="matrix(0.965926 0.258819 0.258819 -0.965926 13.5576 128.442)" fill="#FFF4E7" stroke="black" stroke-width="1.5"/>
<circle cx="2.69082" cy="2.69082" r="1.94082" transform="matrix(0.965926 0.258819 0.258819 -0.965926 10.0693 122.4)" fill="#FFF4E7" stroke="black" stroke-width="1.5"/>
<circle cx="2.69082" cy="2.69082" r="1.94082" transform="matrix(0.965926 0.258819 0.258819 -0.965926 20.0322 125.07)" fill="#FFF4E7" stroke="black" stroke-width="1.5"/>
<circle cx="2.69082" cy="2.69082" r="1.94082" transform="matrix(0.965926 0.258819 0.258819 -0.965926 16.2266 118.479)" fill="#FFF4E7" stroke="black" stroke-width="1.5"/>
</svg>
