<svg width="93" height="104" viewBox="0 0 93 104" fill="none" xmlns="http://www.w3.org/2000/svg">
<path d="M44.6917 68.9806V84.6451C44.6917 85.3826 45.1586 86.0393 45.8552 86.2816C46.9811 86.6732 48.157 85.8372 48.157 84.6451V68.8299C48.157 66.4324 49.1094 64.1331 50.8047 62.4378L64.8805 48.362C65.6294 47.6131 65.6294 46.3989 64.8805 45.6501C64.1316 44.9012 62.9175 44.9012 62.1686 45.6501L49.1858 58.6329C48.8061 59.0125 48.157 58.7436 48.157 58.2067V33.2204C48.157 32.2635 47.3813 31.4878 46.4244 31.4878C45.4675 31.4878 44.6917 32.2635 44.6917 33.2204V58.2067C44.6917 58.7436 44.0426 59.0125 43.663 58.6329L29.7767 44.7466C29.0217 43.9916 27.8027 43.9751 27.0276 44.7094C26.2222 45.4724 26.205 46.7494 26.9894 47.5338L42.0441 62.5885C43.7393 64.2838 44.6917 66.5831 44.6917 68.9806Z" fill="#ECAE11" stroke="black" stroke-width="1.5" stroke-linecap="round"/>
<path d="M45.1436 103.053V103.053C45.1436 86.7811 45.1436 57.5527 91.9996 57.5527C91.9996 72.7696 91.9996 103.053 45.1436 103.053Z" fill="#01A755"/>
<path d="M45.1436 103.053C45.1436 86.7812 45.1436 57.5527 91.9996 57.5527M45.1436 103.053C91.9996 103.053 91.9996 72.7696 91.9996 57.5527M45.1436 103.053L51.4714 96.9081M91.9996 57.5527L87.6553 61.7713M87.6553 61.7713V77.5908M87.6553 61.7713L82.5353 66.7431M82.5353 66.7431H69.0989M82.5353 66.7431L76.3307 72.7682M76.3307 72.7682V86.6306M76.3307 72.7682L71.3643 77.5908M71.3643 77.5908H55.9912M71.3643 77.5908L64.579 84.1798M64.579 84.1798V94.465M64.579 84.1798L57.7992 90.7634M57.7992 90.7634H49.5128M57.7992 90.7634L51.4714 96.9081M51.4714 96.9081V100.341" stroke="black" stroke-width="1.5" stroke-linecap="round"/>
<path d="M47.856 103.053V103.053C47.8559 86.7811 47.8559 57.5527 0.999947 57.5527C0.999947 72.7696 0.999947 103.053 47.856 103.053Z" fill="#038A47"/>
<path d="M47.856 103.053C47.8559 86.7812 47.856 57.5527 0.999948 57.5527M47.856 103.053C0.999948 103.053 0.999948 72.7696 0.999948 57.5527M47.856 103.053L41.5281 96.9081M0.999948 57.5527L5.34421 61.7713M5.34421 61.7713V77.5908M5.34421 61.7713L10.4642 66.7431M10.4642 66.7431H23.9006M10.4642 66.7431L16.6688 72.7682M16.6688 72.7682V86.6306M16.6688 72.7682L21.6352 77.5908M21.6352 77.5908H37.0083M21.6352 77.5908L28.4205 84.1798M28.4205 84.1798V94.465M28.4205 84.1798L35.2003 90.7634M35.2003 90.7634H43.4867M35.2003 90.7634L41.5281 96.9081M41.5281 96.9081V100.341" stroke="black" stroke-width="1.5" stroke-linecap="round"/>
<circle cx="19.5308" cy="37.2129" r="13.2612" fill="#6B47EF" stroke="black" stroke-width="1.5"/>
<path d="M16.4436 30.6322C16.4015 30.1493 17.0631 29.9721 17.2681 30.4113L17.919 31.8069C18.427 32.8965 19.7958 33.2635 20.7805 32.5739L22.0419 31.69C22.4389 31.4124 22.9231 31.8966 22.6455 32.2936L21.7623 33.5554C21.0726 34.5401 21.4392 35.9084 22.5289 36.4164L23.9244 37.0666C24.3639 37.2715 24.1865 37.9332 23.7035 37.8911L22.1694 37.7573C20.9717 37.6524 19.9698 38.6546 20.0748 39.8522L20.2086 41.3855C20.2509 41.8685 19.589 42.0459 19.3842 41.6064L18.7344 40.2114C18.2264 39.1218 16.8576 38.755 15.8729 39.4444L14.6112 40.3274C14.214 40.6056 13.7295 40.121 14.0077 39.7238L14.8911 38.4629C15.5807 37.4783 15.214 36.11 14.1245 35.6019L12.7287 34.9508C12.2895 34.7458 12.4667 34.0841 12.9496 34.1262L14.484 34.261C15.6815 34.3657 16.6835 33.3636 16.5786 32.1661L16.4436 30.6322Z" fill="#3D1EB1" stroke="black" stroke-width="1.5"/>
<circle cx="14.0112" cy="14.0112" r="13.2612" transform="matrix(-1 0 0 1 87.4819 23.2017)" fill="#6B47EF" stroke="black" stroke-width="1.5"/>
<path d="M76.5574 30.6322C76.5995 30.1493 75.9379 29.9721 75.7329 30.4113L75.0819 31.8069C74.574 32.8965 73.2052 33.2635 72.2205 32.5739L70.959 31.69C70.562 31.4124 70.0779 31.8966 70.3555 32.2936L71.2387 33.5554C71.9283 34.5401 71.5617 35.9084 70.4721 36.4164L69.0765 37.0666C68.6371 37.2715 68.8145 37.9332 69.2974 37.8911L70.8316 37.7573C72.0293 37.6524 73.0311 38.6546 72.9262 39.8522L72.7924 41.3855C72.7501 41.8685 73.4119 42.0459 73.6168 41.6064L74.2666 40.2114C74.7745 39.1218 76.1433 38.755 77.1281 39.4444L78.3898 40.3274C78.787 40.6056 79.2715 40.121 78.9933 39.7238L78.1099 38.4629C77.4203 37.4783 77.787 36.11 78.8765 35.6019L80.2723 34.9508C80.7115 34.7458 80.5342 34.0841 80.0514 34.1262L78.5169 34.261C77.3195 34.3657 76.3174 33.3636 76.4223 32.1661L76.5574 30.6322Z" fill="#3D1EB1" stroke="black" stroke-width="1.5"/>
<circle cx="14.0112" cy="14.0112" r="13.2612" transform="matrix(-0.5 0.866025 0.866025 0.5 41.5078 3.29248)" fill="#6B47EF" stroke="black" stroke-width="1.5"/>
<path d="M42.4812 16.4685C42.0841 16.1906 41.5999 16.675 41.8777 17.0721L42.7609 18.3337C43.4505 19.3184 43.0839 20.6872 41.9944 21.1953L40.5981 21.8457C40.1593 22.0508 40.3365 22.7121 40.8191 22.6702L42.3535 22.5363C43.5511 22.4314 44.5528 23.433 44.4479 24.6307L44.3132 26.1643C44.2709 26.6473 44.9327 26.8246 45.1377 26.3853L45.7889 24.9897C46.2969 23.9001 47.6657 23.5336 48.6504 24.2232L49.9114 25.1057C50.3086 25.3839 50.7931 24.8994 50.5149 24.5022L49.6317 23.242C48.9421 22.2573 49.3088 20.8885 50.3982 20.3804L51.7938 19.7293C52.2333 19.5244 52.0559 18.8624 51.5728 18.9048L50.0391 19.0394C48.8416 19.1443 47.84 18.1425 47.9447 16.945L48.0787 15.4107C48.1208 14.9278 47.4591 14.7504 47.2542 15.1897L46.6037 16.5859C46.0956 17.6753 44.7268 18.0421 43.7421 17.3524L42.4812 16.4685Z" fill="#3D1EB1" stroke="black" stroke-width="1.5"/>
</svg>
