<svg width="127" height="145" viewBox="0 0 127 145" fill="none" xmlns="http://www.w3.org/2000/svg">
<path d="M39.234 122.211L53.2623 108.183C54.9316 106.514 57.6431 106.53 59.2921 108.22L73.347 122.619C74.5321 123.834 74.5138 125.782 73.314 126.982C72.1111 128.185 70.1543 128.191 68.9514 126.988L67.8919 125.929C67.2742 125.311 66.2727 125.311 65.6551 125.929C65.0374 126.546 65.0374 127.548 65.6551 128.166L66.9501 129.461C68.283 130.793 68.283 132.955 66.9501 134.287L65.9504 135.287C65.1696 136.068 63.9037 136.068 63.1229 135.287C61.8634 134.028 59.7098 134.92 59.7098 136.701L59.7098 140.762C59.7098 142.551 58.2603 144 56.4723 144C54.6842 144 53.2348 142.551 53.2348 140.762L53.2348 136.701C53.2348 134.92 51.0812 134.028 49.8217 135.287C49.0409 136.068 47.7749 136.068 46.9942 135.287L45.9945 134.287C44.6616 132.955 44.6616 130.793 45.9945 129.461L47.2895 128.166C47.9072 127.548 47.9072 126.546 47.2895 125.929C46.6718 125.311 45.6703 125.311 45.0527 125.929L43.8992 127.082C42.7202 128.261 40.8354 128.342 39.5594 127.269L39.4481 127.176C37.9353 125.904 37.8364 123.609 39.234 122.211Z" fill="#01A755" stroke="#121212" stroke-width="1.5" stroke-linecap="round" stroke-linejoin="round"/>
<path d="M96.2986 30.8319V21.4113C96.2986 10.283 87.2774 1.26172 76.1491 1.26172V1.26172C65.0208 1.26172 55.9995 10.283 55.9995 21.4113V127.916" stroke="#121212" stroke-width="1.5" stroke-linecap="round" stroke-linejoin="round"/>
<path d="M17.2445 46.8273H37.0834C39.4442 46.8273 41.3499 48.7562 41.3213 51.1168L41.0774 71.2373C41.0569 72.9339 39.6663 74.2985 37.9696 74.2985C36.2685 74.2985 34.8801 72.9195 34.8801 71.2184L34.8801 69.72C34.8801 68.8464 34.172 68.1383 33.2984 68.1383C32.4249 68.1383 31.7168 68.8464 31.7168 69.72L31.7168 71.5514C31.7168 73.4364 30.1887 74.9645 28.3037 74.9645H26.8899C25.7857 74.9645 24.8906 74.0694 24.8906 72.9652C24.8906 71.1839 22.737 70.2919 21.4775 71.5514L18.6055 74.4234C17.3411 75.6877 15.2912 75.6877 14.0269 74.4234C12.7626 73.1591 12.7626 71.1092 14.0269 69.8449L16.8989 66.9729C18.1584 65.7133 17.2664 63.5598 15.4852 63.5598C14.381 63.5598 13.4858 62.6646 13.4858 61.5604L13.4858 60.1467C13.4858 58.2617 15.0139 56.7336 16.8989 56.7336H18.7303C19.6039 56.7336 20.312 56.0254 20.312 55.1519C20.312 54.2783 19.6039 53.5702 18.7303 53.5702H17.0991C15.4318 53.5702 14.0416 52.2949 13.898 50.6339L13.8855 50.489C13.7153 48.5198 15.2679 46.8273 17.2445 46.8273Z" fill="#01A755" stroke="#121212" stroke-width="1.5" stroke-linecap="round" stroke-linejoin="round"/>
<path d="M17.2445 84.5094H37.0834C39.4442 84.5094 41.3499 86.4384 41.3213 88.799L41.0774 108.919C41.0569 110.616 39.6663 111.981 37.9696 111.981C36.2685 111.981 34.8801 110.602 34.8801 108.901L34.8801 107.402C34.8801 106.529 34.172 105.82 33.2984 105.82C32.4249 105.82 31.7168 106.529 31.7168 107.402L31.7168 109.234C31.7168 111.119 30.1887 112.647 28.3037 112.647H26.8899C25.7857 112.647 24.8906 111.751 24.8906 110.647C24.8906 108.866 22.737 107.974 21.4775 109.234L18.6055 112.106C17.3411 113.37 15.2912 113.37 14.0269 112.106C12.7626 110.841 12.7626 108.791 14.0269 107.527L16.8989 104.655C18.1584 103.395 17.2664 101.242 15.4852 101.242C14.381 101.242 13.4858 100.347 13.4858 99.2425L13.4858 97.8288C13.4858 95.9438 15.0139 94.4157 16.8989 94.4157H18.7303C19.6039 94.4157 20.312 93.7076 20.312 92.834C20.312 91.9605 19.6039 91.2523 18.7303 91.2523H17.0991C15.4318 91.2523 14.0416 89.9771 13.898 88.316L13.8855 88.1711C13.7153 86.2019 15.2679 84.5094 17.2445 84.5094Z" fill="#01A755" stroke="#121212" stroke-width="1.5" stroke-linecap="round" stroke-linejoin="round"/>
<path d="M91.0654 30.5701V21.1496C91.0654 10.0213 82.0441 1 70.9158 1V1C59.7875 1 50.7663 10.0213 50.7663 21.1496V38.2898M50.7663 38.2898V64.5235C50.7663 71.6026 47.9541 78.3917 42.9485 83.3973L27.084 99.2618M50.7663 38.2898L27.084 61.972" stroke="#121212" stroke-width="1.5" stroke-linecap="round" stroke-linejoin="round"/>
<path d="M92.651 46.8273H72.8121C70.4513 46.8273 68.5456 48.7562 68.5742 51.1168L68.8181 71.2373C68.8386 72.9339 70.2292 74.2985 71.9259 74.2985C73.627 74.2985 75.0154 72.9195 75.0154 71.2184L75.0154 69.72C75.0154 68.8464 75.7235 68.1383 76.5971 68.1383C77.4706 68.1383 78.1788 68.8464 78.1788 69.72L78.1788 71.5514C78.1788 73.4364 79.7068 74.9645 81.5919 74.9645H83.0056C84.1098 74.9645 85.005 74.0694 85.005 72.9652C85.005 71.1839 87.1585 70.2919 88.4181 71.5514L91.29 74.4234C92.5544 75.6877 94.6043 75.6877 95.8686 74.4234C97.1329 73.1591 97.1329 71.1092 95.8686 69.8449L92.9966 66.9729C91.7371 65.7133 92.6291 63.5598 94.4103 63.5598C95.5146 63.5598 96.4097 62.6646 96.4097 61.5604L96.4097 60.1467C96.4097 58.2617 94.8816 56.7336 92.9966 56.7336H91.1652C90.2916 56.7336 89.5835 56.0254 89.5835 55.1519C89.5835 54.2783 90.2916 53.5702 91.1652 53.5702H92.7965C94.4637 53.5702 95.8539 52.2949 95.9975 50.6339L96.01 50.489C96.1802 48.5198 94.6276 46.8273 92.651 46.8273Z" fill="#01A755" stroke="#121212" stroke-width="1.5" stroke-linecap="round" stroke-linejoin="round"/>
<path d="M92.651 84.5094H72.8121C70.4513 84.5094 68.5456 86.4384 68.5742 88.799L68.8181 108.919C68.8386 110.616 70.2292 111.981 71.9259 111.981C73.627 111.981 75.0154 110.602 75.0154 108.901L75.0154 107.402C75.0154 106.529 75.7235 105.82 76.5971 105.82C77.4706 105.82 78.1788 106.529 78.1788 107.402L78.1788 109.234C78.1788 111.119 79.7068 112.647 81.5919 112.647H83.0056C84.1098 112.647 85.005 111.751 85.005 110.647C85.005 108.866 87.1585 107.974 88.4181 109.234L91.29 112.106C92.5544 113.37 94.6043 113.37 95.8686 112.106C97.1329 110.841 97.1329 108.791 95.8686 107.527L92.9966 104.655C91.7371 103.395 92.6291 101.242 94.4103 101.242C95.5146 101.242 96.4097 100.347 96.4097 99.2425L96.4097 97.8288C96.4097 95.9438 94.8816 94.4157 92.9966 94.4157H91.1652C90.2916 94.4157 89.5835 93.7076 89.5835 92.834C89.5835 91.9605 90.2916 91.2523 91.1652 91.2523H92.7965C94.4637 91.2523 95.8539 89.9771 95.9975 88.316L96.01 88.1711C96.1802 86.2019 94.6276 84.5094 92.651 84.5094Z" fill="#01A755" stroke="#121212" stroke-width="1.5" stroke-linecap="round" stroke-linejoin="round"/>
<path d="M101.009 30.5701V21.1496C101.009 10.0213 91.9878 1 80.8595 1V1C69.7312 1 60.71 10.0213 60.71 21.1496V38.2898M60.71 38.2898V64.5235C60.71 71.6026 63.5221 78.3917 68.5278 83.3973L81.3829 96.2525M60.71 38.2898L82.8221 60.4019" stroke="#121212" stroke-width="1.5" stroke-linecap="round" stroke-linejoin="round"/>
<path d="M115.683 20.3643H110.41C104.823 20.3643 100.463 25.1988 101.039 30.756L109.294 110.401C109.493 112.324 111.114 113.785 113.047 113.785C114.98 113.785 116.6 112.324 116.799 110.401L125.054 30.756C125.63 25.1988 121.27 20.3643 115.683 20.3643Z" fill="#E17902" stroke="#121212" stroke-width="1.5" stroke-linecap="round" stroke-linejoin="round"/>
<path d="M98.9357 30.832H93.6622C88.0753 30.832 83.7159 35.6666 84.2919 41.2238L92.5464 120.869C92.7457 122.792 94.366 124.253 96.299 124.253C98.232 124.253 99.8523 122.792 100.052 120.869L108.306 41.2238C108.882 35.6666 104.523 30.832 98.9357 30.832Z" fill="#FF8800" stroke="#121212" stroke-width="1.5" stroke-linecap="round" stroke-linejoin="round"/>
</svg>
