<svg width="82" height="148" viewBox="0 0 82 148" fill="none" xmlns="http://www.w3.org/2000/svg">
<circle cx="16.8645" cy="119.214" r="16.1145" transform="rotate(-90 16.8645 119.214)" fill="#E63C23" stroke="black" stroke-width="1.5"/>
<circle cx="65.1316" cy="93.6263" r="16.1145" transform="rotate(-90 65.1316 93.6263)" fill="#E63C23" stroke="black" stroke-width="1.5"/>
<circle cx="16.8645" cy="68.0394" r="16.1145" transform="rotate(-90 16.8645 68.0394)" fill="#E63C23" stroke="black" stroke-width="1.5"/>
<circle cx="65.1316" cy="42.4519" r="16.1145" transform="rotate(-90 65.1316 42.4519)" fill="#E63C23" stroke="black" stroke-width="1.5"/>
<circle cx="16.8645" cy="16.8645" r="16.1145" transform="rotate(-90 16.8645 16.8645)" fill="#E63C23" stroke="black" stroke-width="1.5"/>
<path d="M10.5596 123.806C10.5596 123.878 10.582 123.938 10.6113 123.976C10.6347 124.006 10.6774 124.044 10.7734 124.061L13.084 124.468C14.1608 124.658 14.8048 125.775 14.4307 126.802L13.6279 129.006C13.5947 129.098 13.6066 129.154 13.6211 129.189C13.6395 129.233 13.6797 129.283 13.7422 129.319C13.8046 129.355 13.8674 129.365 13.915 129.359C13.9529 129.354 14.0068 129.336 14.0693 129.261L15.5771 127.464C16.28 126.626 17.5696 126.626 18.2725 127.464L19.7803 129.261C19.8429 129.336 19.8967 129.354 19.9346 129.359C19.9822 129.365 20.045 129.355 20.1074 129.319C20.1699 129.283 20.2101 129.233 20.2285 129.189C20.243 129.154 20.2549 129.098 20.2217 129.006L19.4189 126.802C19.0448 125.775 19.6895 124.658 20.7666 124.468L23.0762 124.061C23.1722 124.044 23.2149 124.006 23.2383 123.976C23.2676 123.938 23.29 123.878 23.29 123.806C23.29 123.734 23.2677 123.674 23.2383 123.636C23.2149 123.606 23.1722 123.568 23.0762 123.551L20.7666 123.144C19.6895 122.954 19.0448 121.838 19.4189 120.81L20.2217 118.606C20.2548 118.515 20.243 118.46 20.2285 118.424C20.2102 118.38 20.17 118.33 20.1074 118.293C20.045 118.257 19.9822 118.248 19.9346 118.254C19.8967 118.259 19.8428 118.277 19.7803 118.351L18.2725 120.149C17.5696 120.987 16.28 120.987 15.5771 120.149L14.0693 118.351C14.0068 118.277 13.9529 118.259 13.915 118.254C13.8674 118.248 13.8046 118.257 13.7422 118.293C13.6796 118.33 13.6394 118.38 13.6211 118.424C13.6067 118.46 13.5949 118.515 13.6279 118.606L14.4307 120.81C14.8048 121.838 14.1608 122.954 13.084 123.144L10.7734 123.551C10.6774 123.568 10.6347 123.606 10.6113 123.636C10.582 123.674 10.5596 123.734 10.5596 123.806Z" fill="#AA2C19" stroke="black" stroke-width="1.5"/>
<path d="M10.5596 71.2393C10.5596 71.3114 10.582 71.371 10.6113 71.4092C10.6347 71.4395 10.6774 71.4772 10.7734 71.4941L13.084 71.9014C14.1608 72.0914 14.8048 73.2078 14.4307 74.2354L13.6279 76.4395C13.5947 76.5309 13.6066 76.5867 13.6211 76.6221C13.6395 76.6666 13.6797 76.7159 13.7422 76.752C13.8046 76.788 13.8674 76.7983 13.915 76.792C13.9529 76.7869 14.0068 76.7688 14.0693 76.6943L15.5771 74.8975C16.28 74.0596 17.5696 74.0596 18.2725 74.8975L19.7803 76.6943C19.8429 76.7688 19.8967 76.7869 19.9346 76.792C19.9822 76.7983 20.045 76.788 20.1074 76.752C20.1699 76.7159 20.2101 76.6665 20.2285 76.6221C20.243 76.5867 20.2549 76.531 20.2217 76.4395L19.4189 74.2354C19.0448 73.2077 19.6895 72.0912 20.7666 71.9014L23.0762 71.4941C23.1722 71.4772 23.2149 71.4395 23.2383 71.4092C23.2676 71.371 23.29 71.3114 23.29 71.2393C23.29 71.167 23.2677 71.1075 23.2383 71.0693C23.2149 71.0391 23.1722 71.0013 23.0762 70.9844L20.7666 70.5771C19.6895 70.3874 19.0448 69.2708 19.4189 68.2432L20.2217 66.0391C20.2548 65.948 20.243 65.8928 20.2285 65.8574C20.2102 65.8129 20.17 65.7627 20.1074 65.7266C20.045 65.6906 19.9822 65.6811 19.9346 65.6875C19.8967 65.6926 19.8428 65.7098 19.7803 65.7842L18.2725 67.582C17.5696 68.4198 16.28 68.4198 15.5771 67.582L14.0693 65.7842C14.0068 65.7098 13.9529 65.6926 13.915 65.6875C13.8674 65.6812 13.8046 65.6905 13.7422 65.7266C13.6796 65.7627 13.6394 65.8129 13.6211 65.8574C13.6067 65.8927 13.5949 65.9481 13.6279 66.0391L14.4307 68.2432C14.8048 69.2707 14.1608 70.3871 13.084 70.5771L10.7734 70.9844C10.6774 71.0013 10.6347 71.0391 10.6113 71.0693C10.582 71.1075 10.5596 71.1671 10.5596 71.2393Z" fill="#AA2C19" stroke="black" stroke-width="1.5"/>
<path d="M10.5596 21.8091C10.5596 21.8812 10.582 21.9409 10.6113 21.979C10.6347 22.0093 10.6774 22.047 10.7734 22.064L13.084 22.4712C14.1608 22.6612 14.8048 23.7776 14.4307 24.8052L13.6279 27.0093C13.5947 27.1008 13.6066 27.1566 13.6211 27.1919C13.6395 27.2364 13.6797 27.2857 13.7422 27.3218C13.8046 27.3578 13.8674 27.3681 13.915 27.3618C13.9529 27.3567 14.0068 27.3386 14.0693 27.2642L15.5771 25.4673C16.28 24.6294 17.5696 24.6294 18.2725 25.4673L19.7803 27.2642C19.8429 27.3387 19.8967 27.3567 19.9346 27.3618C19.9822 27.3681 20.045 27.3578 20.1074 27.3218C20.1699 27.2857 20.2101 27.2364 20.2285 27.1919C20.243 27.1566 20.2549 27.1008 20.2217 27.0093L19.4189 24.8052C19.0448 23.7775 19.6895 22.661 20.7666 22.4712L23.0762 22.064C23.1722 22.047 23.2149 22.0093 23.2383 21.979C23.2676 21.9409 23.29 21.8813 23.29 21.8091C23.29 21.7369 23.2677 21.6773 23.2383 21.6392C23.2149 21.6089 23.1722 21.5711 23.0762 21.5542L20.7666 21.147C19.6895 20.9572 19.0448 19.8407 19.4189 18.813L20.2217 16.6089C20.2548 16.5178 20.243 16.4626 20.2285 16.4272C20.2102 16.3827 20.17 16.3325 20.1074 16.2964C20.045 16.2604 19.9822 16.251 19.9346 16.2573C19.8967 16.2624 19.8428 16.2796 19.7803 16.354L18.2725 18.1519C17.5696 18.9896 16.28 18.9896 15.5771 18.1519L14.0693 16.354C14.0068 16.2796 13.9529 16.2624 13.915 16.2573C13.8674 16.251 13.8046 16.2604 13.7422 16.2964C13.6796 16.3325 13.6394 16.3827 13.6211 16.4272C13.6067 16.4626 13.5949 16.5179 13.6279 16.6089L14.4307 18.813C14.8048 19.8405 14.1608 20.9569 13.084 21.147L10.7734 21.5542C10.6774 21.5711 10.6347 21.6089 10.6113 21.6392C10.582 21.6773 10.5596 21.7369 10.5596 21.8091Z" fill="#AA2C19" stroke="black" stroke-width="1.5"/>
<path d="M63.126 47.3965C63.126 47.4686 63.1484 47.5283 63.1777 47.5664C63.2011 47.5967 63.2438 47.6344 63.3398 47.6514L65.6504 48.0586C66.7272 48.2486 67.3712 49.365 66.9971 50.3926L66.1943 52.5967C66.1611 52.6882 66.173 52.744 66.1875 52.7793C66.2059 52.8238 66.2461 52.8731 66.3086 52.9092C66.371 52.9452 66.4338 52.9555 66.4814 52.9492C66.5193 52.9441 66.5732 52.926 66.6357 52.8516L68.1436 51.0547C68.8465 50.2168 70.136 50.2168 70.8389 51.0547L72.3467 52.8516C72.4093 52.9261 72.4631 52.9441 72.501 52.9492C72.5487 52.9555 72.6114 52.9452 72.6738 52.9092C72.7363 52.8731 72.7765 52.8238 72.7949 52.7793C72.8095 52.744 72.8213 52.6882 72.7881 52.5967L71.9854 50.3926C71.6112 49.3649 72.2559 48.2484 73.333 48.0586L75.6426 47.6514C75.7386 47.6344 75.7813 47.5967 75.8047 47.5664C75.8341 47.5283 75.8564 47.4687 75.8564 47.3965C75.8564 47.3243 75.8341 47.2647 75.8047 47.2266C75.7813 47.1963 75.7386 47.1585 75.6426 47.1416L73.333 46.7344C72.2559 46.5446 71.6112 45.4281 71.9854 44.4004L72.7881 42.1963C72.8212 42.1052 72.8094 42.05 72.7949 42.0146C72.7766 41.9701 72.7364 41.9199 72.6738 41.8838C72.6114 41.8478 72.5486 41.8384 72.501 41.8447C72.4631 41.8498 72.4092 41.867 72.3467 41.9414L70.8389 43.7393C70.136 44.577 68.8464 44.577 68.1436 43.7393L66.6357 41.9414C66.5732 41.867 66.5193 41.8498 66.4814 41.8447C66.4338 41.8384 66.371 41.8478 66.3086 41.8838C66.246 41.9199 66.2058 41.9701 66.1875 42.0146C66.1731 42.05 66.1613 42.1053 66.1943 42.1963L66.9971 44.4004C67.3712 45.4279 66.7272 46.5443 65.6504 46.7344L63.3398 47.1416C63.2438 47.1585 63.2011 47.1963 63.1777 47.2266C63.1484 47.2647 63.126 47.3243 63.126 47.3965Z" fill="#AA2C19" stroke="black" stroke-width="1.5"/>
<path d="M63.126 96.8267C63.126 96.8988 63.1484 96.9584 63.1777 96.9966C63.2011 97.0269 63.2438 97.0646 63.3398 97.0815L65.6504 97.4888C66.7272 97.6788 67.3712 98.7952 66.9971 99.8228L66.1943 102.027C66.1611 102.118 66.173 102.174 66.1875 102.209C66.2059 102.254 66.2461 102.303 66.3086 102.339C66.371 102.375 66.4338 102.386 66.4814 102.379C66.5193 102.374 66.5732 102.356 66.6357 102.282L68.1436 100.485C68.8465 99.647 70.136 99.647 70.8389 100.485L72.3467 102.282C72.4093 102.356 72.4631 102.374 72.501 102.379C72.5487 102.386 72.6114 102.375 72.6738 102.339C72.7363 102.303 72.7765 102.254 72.7949 102.209C72.8095 102.174 72.8213 102.118 72.7881 102.027L71.9854 99.8228C71.6112 98.7951 72.2559 97.6786 73.333 97.4888L75.6426 97.0815C75.7386 97.0646 75.7813 97.0269 75.8047 96.9966C75.8341 96.9584 75.8564 96.8988 75.8564 96.8267C75.8564 96.7544 75.8341 96.6949 75.8047 96.6567C75.7813 96.6265 75.7386 96.5887 75.6426 96.5718L73.333 96.1646C72.2559 95.9748 71.6112 94.8582 71.9854 93.8306L72.7881 91.6265C72.8212 91.5354 72.8094 91.4802 72.7949 91.4448C72.7766 91.4003 72.7364 91.3501 72.6738 91.314C72.6114 91.278 72.5486 91.2686 72.501 91.2749C72.4631 91.28 72.4092 91.2972 72.3467 91.3716L70.8389 93.1694C70.136 94.0072 68.8464 94.0072 68.1436 93.1694L66.6357 91.3716C66.5732 91.2972 66.5193 91.28 66.4814 91.2749C66.4338 91.2686 66.371 91.2779 66.3086 91.314C66.246 91.3501 66.2058 91.4003 66.1875 91.4448C66.1731 91.4802 66.1613 91.5355 66.1943 91.6265L66.9971 93.8306C67.3712 94.8581 66.7272 95.9745 65.6504 96.1646L63.3398 96.5718C63.2438 96.5887 63.2011 96.6265 63.1777 96.6567C63.1484 96.6949 63.126 96.7545 63.126 96.8267Z" fill="#AA2C19" stroke="black" stroke-width="1.5"/>
<path d="M17.1553 125.902V125.902C17.1553 129.756 20.2796 132.88 24.1337 132.88L30.3852 132.88C37.6918 132.88 43.615 138.803 43.615 146.11L43.615 148L43.615 121.758M43.615 16.2827L43.615 43.0333M43.615 43.0333L35.1828 43.0333C25.2265 43.0333 17.1553 34.9621 17.1553 25.0057V25.0057M43.615 43.0333L43.615 69.275M43.615 95.5166L39.1082 95.5166C26.9839 95.5166 17.1553 85.688 17.1553 73.5638V73.5638M43.615 95.5166L43.615 121.758M43.615 95.5166L43.615 69.275M43.615 121.758L47.1769 121.758C59.3413 121.758 69.2025 111.897 69.2025 99.7328V99.7328M43.615 69.275L50.23 69.275C60.7082 69.275 69.2025 60.7807 69.2025 50.3024V50.3024" stroke="black" stroke-width="1.5" stroke-linecap="round"/>
</svg>
