<svg width="82" height="201" viewBox="0 0 82 201" fill="none" xmlns="http://www.w3.org/2000/svg">
<path d="M50.4759 174.825C53.4427 158.512 48.1436 129.956 44.6046 115.81C44.4965 115.378 44.6748 114.926 44.2313 114.883C42.7555 114.74 42.0348 117.078 42.0085 118.56C41.5549 144.098 44.7956 164.186 47.3981 174.823C47.8661 176.735 50.1235 176.762 50.4759 174.825Z" fill="#026836" stroke="black" stroke-width="1.5" stroke-linecap="round"/>
<path d="M45.0279 190.081C46.9163 165.757 42.7514 125.553 40.046 106.059C40.046 104.001 38.1428 108.687 38.1223 110.744C37.7695 146.011 40.0728 174.128 42.0726 190.085C42.3602 192.38 44.8489 192.387 45.0279 190.081Z" fill="#01A755" stroke="black" stroke-width="1.5" stroke-linecap="round"/>
<path d="M32.1091 165.934C29.0387 151.193 34.4253 125.252 38.0342 112.369C38.1557 111.936 37.9947 111.489 38.4442 111.465C39.8744 111.387 40.667 113.518 40.6946 114.95C41.1404 138.132 37.8224 156.343 35.1761 165.93C34.6736 167.751 32.4942 167.783 32.1091 165.934Z" fill="#026836" stroke="black" stroke-width="1.5" stroke-linecap="round"/>
<path d="M73.2252 71.7588L58.4411 87.469C56.4475 89.5875 55.4627 92.462 55.7385 95.358C56.0741 98.881 53.3037 101.928 49.7648 101.928L48.8902 101.928C44.8282 101.928 41.6733 98.3879 42.1389 94.3527L49.879 27.2719C50.4047 22.7165 54.2619 19.2787 58.8476 19.2787C60.2349 19.2787 61.6036 19.5985 62.8474 20.2131L66.4339 21.9856C75.354 26.3938 81 35.4818 81 45.4318L81 52.1524C81 59.4395 78.2193 66.452 73.2252 71.7588Z" fill="#DCD5CC" stroke="black" stroke-width="1.5"/>
<path d="M50.8014 94.0438L50.8014 106.961C50.8014 109.448 48.7852 111.464 46.2981 111.464C43.2258 111.464 40.7352 108.973 40.7352 105.901L40.7352 23.6939C40.7352 19.3093 44.2896 15.7549 48.6742 15.7549C50.0677 15.7549 51.4368 16.1217 52.6437 16.8185L57.0992 19.3909C65.4962 24.2389 70.669 33.1985 70.669 42.8945L70.669 55.1102C70.6689 62.6979 67.6548 69.9747 62.2895 75.34L55.9036 81.7259C52.6367 84.9928 50.8014 89.4237 50.8014 94.0438Z" fill="#F1EBE4" stroke="black" stroke-width="1.5"/>
<path d="M8.77476 71.7588L23.5589 87.469C25.5525 89.5875 26.5373 92.462 26.2615 95.358C25.9259 98.881 28.6963 101.928 32.2352 101.928L33.1098 101.928C37.1718 101.928 40.3267 98.3879 39.8611 94.3527L32.121 27.2719C31.5953 22.7165 27.7381 19.2787 23.1524 19.2787C21.7651 19.2787 20.3964 19.5985 19.1526 20.2131L15.5661 21.9856C6.64598 26.3938 1.00001 35.4818 1 45.4318L1 52.1524C1 59.4395 3.78074 66.452 8.77476 71.7588Z" fill="#DCD5CC" stroke="black" stroke-width="1.5"/>
<path d="M31.1986 94.0438L31.1986 106.961C31.1986 109.448 33.2148 111.464 35.7019 111.464C38.7742 111.464 41.2648 108.973 41.2648 105.901L41.2648 23.6939C41.2648 19.3093 37.7104 15.7549 33.3259 15.7549C31.9323 15.7549 30.5632 16.1217 29.3564 16.8185L24.9008 19.3909C16.5038 24.2389 11.3311 33.1985 11.3311 42.8945L11.3311 55.1102C11.3311 62.6979 14.3452 69.9747 19.7105 75.34L26.0964 81.7259C29.3633 84.9928 31.1986 89.4237 31.1986 94.0438Z" fill="#F1EBE4" stroke="black" stroke-width="1.5"/>
<path d="M46.0333 90.1731L46.0333 111.788C46.0333 114.389 43.9249 116.497 41.324 116.497C38.7813 116.497 36.6999 114.479 36.6409 111.937C36.5228 106.855 36.376 98.3845 36.4877 91.05C36.5666 85.8736 35.3809 80.7276 32.7924 76.2442L29.736 70.9504C27.225 66.6013 25.9031 61.6678 25.9031 56.6458L25.9031 45.8265C25.9031 43.3263 26.2309 40.8368 26.878 38.4218L30.5601 24.6799C31.8744 19.7748 36.3195 16.364 41.3976 16.364C46.4758 16.364 50.9208 19.7748 52.2351 24.6799L55.9173 38.4218C56.5644 40.8368 56.8921 43.3263 56.8921 45.8265L56.8921 56.6458C56.8921 61.6678 55.5702 66.6013 53.0592 70.9504L49.5601 77.0111C47.2497 81.0128 46.0333 85.5522 46.0333 90.1731Z" fill="#FFFAF4" stroke="black" stroke-width="1.5"/>
<path d="M44.179 16.0996L44.179 12.477C44.179 11.4765 44.8192 10.5882 45.7684 10.2718V10.2718C46.7176 9.9554 47.3578 9.06713 47.3578 8.06661L47.3578 6.29828M40.7353 16.0996L40.7353 11.8362C40.7353 10.4726 41.1511 9.14133 41.9273 8.02014V8.02014C42.7035 6.89895 43.1194 5.56772 43.1194 4.20406L43.1194 2.05987M38.3512 16.0996L37.7343 10.3419C37.6278 9.34855 36.9036 8.53174 35.9302 8.30709L35.7138 8.25716C34.7766 8.04089 34.1127 7.20637 34.1127 6.24457V6.24457C34.1127 5.10383 35.0375 4.17908 36.1782 4.17908L36.232 4.17908C37.4024 4.17908 38.3512 3.23028 38.3512 2.05987L38.3512 1.00027M34.9074 15.04L34.9074 12.1261C34.9074 11.3946 34.3144 10.8016 33.5829 10.8016V10.8016C32.8514 10.8016 32.2584 10.2086 32.2584 9.47709L32.2584 8.68239M46.5631 15.04L46.7453 14.5541C47.1255 13.5402 48.008 12.7989 49.0722 12.5993V12.5993C50.5357 12.3249 51.5962 11.0471 51.5962 9.55817L51.5962 8.68239" stroke="black" stroke-width="1.5" stroke-linecap="round"/>
</svg>
