<svg width="117" height="152" viewBox="0 0 117 152" fill="none" xmlns="http://www.w3.org/2000/svg">
<path d="M60 76L83 53C85.4853 50.5147 89.5147 50.5147 92 53L96.5 57.5L101.25 62.25L105.25 66.25L108.75 69.75L115 76L105.25 85.75L101.25 89.75L96.5 94.5L92 99C89.5147 101.485 85.4853 101.485 83 99L60 76Z" fill="#05D06C"/>
<path d="M60 76L83 53C85.4853 50.5147 89.5147 50.5147 92 53V53M60 76L83 99C85.4853 101.485 89.5147 101.485 92 99V99M60 76L69 76M115 76L102.5 76M115 76L108.75 69.75M115 76L105.25 85.75M102.5 76L108.75 69.75M102.5 76L108.5 82M102.5 76L95.5 76M108.75 69.75L105.25 66.25M95.5 76L105.25 85.75M95.5 76L105.25 66.25M95.5 76L87.5 76M105.25 85.75L101.25 89.75M105.25 66.25L101.25 62.25M87.5 76L101.25 89.75M87.5 76L101.25 62.25M87.5 76L78 76M101.25 89.75L96.5 94.5M101.25 62.25L96.5 57.5M78 76L96.5 94.5M78 76L96.5 57.5M78 76L69 76M96.5 94.5L92 99M96.5 57.5L92 53M69 76L92 99M69 76L92 53" stroke="#121212" stroke-width="1.5" stroke-linecap="round"/>
<path d="M57 76L34 53C31.5147 50.5147 27.4853 50.5147 25 53L20.5 57.5L15.75 62.25L11.75 66.25L8.25 69.75L2 76L11.75 85.75L15.75 89.75L20.5 94.5L25 99C27.4853 101.485 31.5147 101.485 34 99L57 76Z" fill="#05D06C"/>
<path d="M57 76L34 53C31.5147 50.5147 27.4853 50.5147 25 53V53M57 76L34 99C31.5147 101.485 27.4853 101.485 25 99V99M57 76L48 76M2 76L14.5 76M2 76L8.25 69.75M2 76L11.75 85.75M14.5 76L8.25 69.75M14.5 76L8.5 82M14.5 76L21.5 76M8.25 69.75L11.75 66.25M21.5 76L11.75 85.75M21.5 76L11.75 66.25M21.5 76L29.5 76M11.75 85.75L15.75 89.75M11.75 66.25L15.75 62.25M29.5 76L15.75 89.75M29.5 76L15.75 62.25M29.5 76L39 76M15.75 89.75L20.5 94.5M15.75 62.25L20.5 57.5M39 76L20.5 94.5M39 76L20.5 57.5M39 76L48 76M20.5 94.5L25 99M20.5 57.5L25 53M48 76L25 99M48 76L25 53" stroke="#121212" stroke-width="1.5" stroke-linecap="round"/>
<path d="M59 76L84.0909 45.0545C86.9524 41.5253 86.9524 36.4747 84.0909 32.9455V32.9455M59 76L33.9091 45.0545C31.0476 41.5253 31.0476 36.4747 33.9091 32.9455V32.9455M59 76L59 63.8909M59 2L59 18.8182M59 2L65.8182 10.4091M59 2L48.3636 15.1182M59 18.8182L65.8182 10.4091M59 18.8182L52.4545 10.7455M59 18.8182L59 28.2364M65.8182 10.4091L69.6364 15.1182M59 28.2364L48.3636 15.1182M59 28.2364L69.6364 15.1182M59 28.2364L59 39M48.3636 15.1182L44 20.5M69.6364 15.1182L74 20.5M59 39L44 20.5M59 39L74 20.5M59 39L59 51.7818M44 20.5L38.8182 26.8909M74 20.5L79.1818 26.8909M59 51.7818L38.8182 26.8909M59 51.7818L79.1818 26.8909M59 51.7818L59 63.8909M38.8182 26.8909L33.9091 32.9455M79.1818 26.8909L84.0909 32.9455M59 63.8909L33.9091 32.9455M59 63.8909L84.0909 32.9455" stroke="#121212" stroke-width="1.5" stroke-linecap="round"/>
<path d="M59 76L84.0909 106.945C86.9524 110.475 86.9524 115.525 84.0909 119.055V119.055M59 76L33.9091 106.945C31.0476 110.475 31.0476 115.525 33.9091 119.055V119.055M59 76V88.1091M59 150V133.182M59 150L65.8182 141.591M59 150L48.3636 136.882M59 133.182L65.8182 141.591M59 133.182L52.4545 141.255M59 133.182V123.764M65.8182 141.591L69.6364 136.882M59 123.764L48.3636 136.882M59 123.764L69.6364 136.882M59 123.764V113M48.3636 136.882L44 131.5M69.6364 136.882L74 131.5M59 113L44 131.5M59 113L74 131.5M59 113V100.218M44 131.5L38.8182 125.109M74 131.5L79.1818 125.109M59 100.218L38.8182 125.109M59 100.218L79.1818 125.109M59 100.218V88.1091M38.8182 125.109L33.9091 119.055M79.1818 125.109L84.0909 119.055M59 88.1091L33.9091 119.055M59 88.1091L84.0909 119.055" stroke="#121212" stroke-width="1.5" stroke-linecap="round"/>
</svg>
