<svg width="130" height="61" viewBox="0 0 130 61" fill="none" xmlns="http://www.w3.org/2000/svg">
<path d="M74.0388 24.8639L2.55369 24.8639C2.32941 24.8639 2.14215 24.6928 2.12195 24.4694C0.98233 11.8643 10.9088 0.999996 23.5653 0.999997L95.9067 1C96.1466 1 96.3443 1.18826 96.3561 1.42789C96.9802 14.1817 86.8079 24.8639 74.0388 24.8639Z" fill="#038A47" stroke="#121212" stroke-width="1.5" stroke-linecap="round" stroke-linejoin="round"/>
<path d="M106.536 35.5174L35.0508 35.5174C34.8265 35.5174 34.6392 35.6885 34.619 35.9119C33.4794 48.517 43.4058 59.3813 56.0623 59.3813L128.404 59.3813C128.644 59.3813 128.841 59.1931 128.853 58.9535C129.477 46.1997 119.305 35.5174 106.536 35.5174Z" fill="#038A47" stroke="#121212" stroke-width="1.5" stroke-linecap="round" stroke-linejoin="round"/>
<path d="M106.668 35.5173L35.845 35.5173C35.2321 35.5173 34.7233 35.9909 34.6797 36.6023C34.261 42.4636 38.9032 47.4492 44.7794 47.4492L125.417 47.4492C125.753 47.4492 125.965 47.0891 125.803 46.7956C121.95 39.8362 114.623 35.5173 106.668 35.5173Z" fill="#01A755" stroke="#121212" stroke-width="1.5" stroke-linecap="round" stroke-linejoin="round"/>
<mask id="path-4-inside-1_94_1069" fill="white">
<path d="M81.4199 10.8438C81.4199 14.2668 78.6447 17.042 75.2217 17.042C71.7987 17.0419 69.0234 14.2667 69.0234 10.8437C69.0235 7.92309 71.0444 5.47517 73.7637 4.81934L73.7637 1L76.6807 1L76.6807 4.82031C79.3996 5.47643 81.4199 7.92337 81.4199 10.8438Z"/>
</mask>
<path d="M81.4199 10.8438C81.4199 14.2668 78.6447 17.042 75.2217 17.042C71.7987 17.0419 69.0234 14.2667 69.0234 10.8437C69.0235 7.92309 71.0444 5.47517 73.7637 4.81934L73.7637 1L76.6807 1L76.6807 4.82031C79.3996 5.47643 81.4199 7.92337 81.4199 10.8438Z" fill="#82E1B2"/>
<path d="M81.4199 10.8438L82.9199 10.8438L82.9199 10.8437L81.4199 10.8438ZM75.2217 17.042L75.2216 18.542L75.2217 18.542L75.2217 17.042ZM69.0234 10.8437L67.5234 10.8437L67.5234 10.8437L69.0234 10.8437ZM73.7637 4.81934L74.1154 6.27753L75.2637 6.00058L75.2637 4.81934L73.7637 4.81934ZM73.7637 1L73.7637 -0.5L72.2637 -0.5L72.2637 1L73.7637 1ZM76.6807 1L78.1807 1L78.1807 -0.5L76.6807 -0.5L76.6807 1ZM76.6807 4.82031L75.1807 4.82031L75.1807 6.0014L76.3288 6.27846L76.6807 4.82031ZM81.4199 10.8438L79.9199 10.8437C79.9199 13.4384 77.8163 15.542 75.2217 15.542L75.2217 17.042L75.2217 18.542C79.4732 18.542 82.9199 15.0952 82.9199 10.8438L81.4199 10.8438ZM75.2217 17.042L75.2217 15.542C72.6271 15.5419 70.5234 13.4383 70.5234 10.8437L69.0234 10.8437L67.5234 10.8437C67.5234 15.0952 70.9703 18.5419 75.2216 18.542L75.2217 17.042ZM69.0234 10.8437L70.5234 10.8438C70.5235 8.63244 72.0537 6.77476 74.1154 6.27753L73.7637 4.81934L73.412 3.36115C70.0351 4.17558 67.5235 7.21375 67.5234 10.8437L69.0234 10.8437ZM73.7637 4.81934L75.2637 4.81934L75.2637 1L73.7637 1L72.2637 1L72.2637 4.81934L73.7637 4.81934ZM73.7637 1L73.7637 2.5L76.6807 2.5L76.6807 1L76.6807 -0.5L73.7637 -0.5L73.7637 1ZM76.6807 1L75.1807 1L75.1807 4.82031L76.6807 4.82031L78.1807 4.82031L78.1807 1L76.6807 1ZM76.6807 4.82031L76.3288 6.27846C78.3903 6.77594 79.9199 8.6328 79.9199 10.8438L81.4199 10.8438L82.9199 10.8437C82.9198 7.21394 80.4088 4.17691 77.0325 3.36217L76.6807 4.82031Z" fill="#121212" mask="url(#path-4-inside-1_94_1069)"/>
<mask id="path-6-inside-2_94_1069" fill="white">
<path d="M63.0957 10.8438C63.0957 14.2668 60.3205 17.042 56.8975 17.042C53.4746 17.0418 50.7002 14.2667 50.7002 10.8437C50.7003 7.92314 52.7202 5.47522 55.4395 4.81934L55.4395 1L58.3564 1L58.3564 4.82031C61.0754 5.47638 63.0956 7.92333 63.0957 10.8438Z"/>
</mask>
<path d="M63.0957 10.8438C63.0957 14.2668 60.3205 17.042 56.8975 17.042C53.4746 17.0418 50.7002 14.2667 50.7002 10.8437C50.7003 7.92314 52.7202 5.47522 55.4395 4.81934L55.4395 1L58.3564 1L58.3564 4.82031C61.0754 5.47638 63.0956 7.92333 63.0957 10.8438Z" fill="#82E1B2"/>
<path d="M63.0957 10.8438L64.5957 10.8438L64.5957 10.8437L63.0957 10.8438ZM56.8975 17.042L56.8974 18.542L56.8975 18.542L56.8975 17.042ZM50.7002 10.8437L49.2002 10.8437L49.2002 10.8437L50.7002 10.8437ZM55.4395 4.81934L55.7912 6.27752L56.9395 6.00055L56.9395 4.81934L55.4395 4.81934ZM55.4395 1L55.4395 -0.5L53.9395 -0.5L53.9395 1L55.4395 1ZM58.3564 1L59.8564 1L59.8564 -0.5L58.3564 -0.5L58.3564 1ZM58.3564 4.82031L56.8564 4.82031L56.8564 6.00142L58.0046 6.27846L58.3564 4.82031ZM63.0957 10.8438L61.5957 10.8437C61.5957 13.4384 59.4921 15.542 56.8975 15.542L56.8975 17.042L56.8975 18.542C61.1489 18.542 64.5957 15.0952 64.5957 10.8438L63.0957 10.8438ZM56.8975 17.042L56.8975 15.542C54.3032 15.5419 52.2002 13.4385 52.2002 10.8437L50.7002 10.8437L49.2002 10.8437C49.2002 15.0949 52.6459 18.5418 56.8974 18.542L56.8975 17.042ZM50.7002 10.8437L52.2002 10.8438C52.2002 8.63215 53.7298 6.77471 55.7912 6.27752L55.4395 4.81934L55.0877 3.36115C51.7106 4.17572 49.2003 7.21413 49.2002 10.8437L50.7002 10.8437ZM55.4395 4.81934L56.9395 4.81934L56.9395 1L55.4395 1L53.9395 1L53.9395 4.81934L55.4395 4.81934ZM55.4395 1L55.4395 2.5L58.3564 2.5L58.3564 1L58.3564 -0.5L55.4395 -0.5L55.4395 1ZM58.3564 1L56.8564 1L56.8564 4.82031L58.3564 4.82031L59.8564 4.82031L59.8564 1L58.3564 1ZM58.3564 4.82031L58.0046 6.27846C60.0662 6.77591 61.5957 8.63273 61.5957 10.8438L63.0957 10.8438L64.5957 10.8437C64.5956 7.21392 62.0846 4.17685 58.7083 3.36216L58.3564 4.82031Z" fill="#121212" mask="url(#path-6-inside-2_94_1069)"/>
<mask id="path-8-inside-3_94_1069" fill="white">
<path d="M44.7715 10.8438C44.7715 14.2668 41.9963 17.042 38.5732 17.042C35.1503 17.0419 32.375 14.2667 32.375 10.8437C32.3751 7.9231 34.396 5.47518 37.1152 4.81934L37.1152 1L40.0322 1L40.0322 4.82031C42.7511 5.47642 44.7714 7.92336 44.7715 10.8438Z"/>
</mask>
<path d="M44.7715 10.8438C44.7715 14.2668 41.9963 17.042 38.5732 17.042C35.1503 17.0419 32.375 14.2667 32.375 10.8437C32.3751 7.9231 34.396 5.47518 37.1152 4.81934L37.1152 1L40.0322 1L40.0322 4.82031C42.7511 5.47642 44.7714 7.92336 44.7715 10.8438Z" fill="#82E1B2"/>
<path d="M44.7715 10.8438L46.2715 10.8438L46.2715 10.8437L44.7715 10.8438ZM38.5732 17.042L38.5732 18.542L38.5732 18.542L38.5732 17.042ZM32.375 10.8437L30.875 10.8437L30.875 10.8437L32.375 10.8437ZM37.1152 4.81934L37.4669 6.27752L38.6152 6.00057L38.6152 4.81934L37.1152 4.81934ZM37.1152 1L37.1152 -0.5L35.6152 -0.5L35.6152 1L37.1152 1ZM40.0322 1L41.5322 1L41.5322 -0.5L40.0322 -0.5L40.0322 1ZM40.0322 4.82031L38.5322 4.82031L38.5322 6.0014L39.6804 6.27846L40.0322 4.82031ZM44.7715 10.8438L43.2715 10.8437C43.2715 13.4384 41.1679 15.542 38.5732 15.542L38.5732 17.042L38.5732 18.542C42.8247 18.542 46.2715 15.0952 46.2715 10.8438L44.7715 10.8438ZM38.5732 17.042L38.5733 15.542C35.9787 15.5419 33.875 13.4383 33.875 10.8437L32.375 10.8437L30.875 10.8437C30.875 15.0952 34.3219 18.5418 38.5732 18.542L38.5732 17.042ZM32.375 10.8437L33.875 10.8438C33.8751 8.63245 35.4052 6.77477 37.4669 6.27752L37.1152 4.81934L36.7635 3.36115C33.3867 4.17559 30.8751 7.21376 30.875 10.8437L32.375 10.8437ZM37.1152 4.81934L38.6152 4.81934L38.6152 1L37.1152 1L35.6152 1L35.6152 4.81934L37.1152 4.81934ZM37.1152 1L37.1152 2.5L40.0322 2.5L40.0322 1L40.0322 -0.5L37.1152 -0.5L37.1152 1ZM40.0322 1L38.5322 1L38.5322 4.82031L40.0322 4.82031L41.5322 4.82031L41.5322 1L40.0322 1ZM40.0322 4.82031L39.6804 6.27846C41.7419 6.77594 43.2714 8.63279 43.2715 10.8438L44.7715 10.8438L46.2715 10.8437C46.2714 7.21394 43.7604 4.1769 40.3841 3.36217L40.0322 4.82031Z" fill="#121212" mask="url(#path-8-inside-3_94_1069)"/>
<mask id="path-10-inside-4_94_1069" fill="white">
<path d="M26.4478 10.8438C26.4478 14.2668 23.6726 17.042 20.2495 17.042C16.8266 17.0419 14.0513 14.2667 14.0513 10.8437C14.0513 7.92311 16.0722 5.47518 18.7915 4.81934L18.7915 1L21.7085 1L21.7085 4.82031C24.4274 5.47641 26.4477 7.92336 26.4478 10.8438Z"/>
</mask>
<path d="M26.4478 10.8438C26.4478 14.2668 23.6726 17.042 20.2495 17.042C16.8266 17.0419 14.0513 14.2667 14.0513 10.8437C14.0513 7.92311 16.0722 5.47518 18.7915 4.81934L18.7915 1L21.7085 1L21.7085 4.82031C24.4274 5.47641 26.4477 7.92336 26.4478 10.8438Z" fill="#82E1B2"/>
<path d="M26.4478 10.8438L27.9478 10.8438L27.9478 10.8437L26.4478 10.8438ZM20.2495 17.042L20.2495 18.542L20.2495 18.542L20.2495 17.042ZM14.0513 10.8437L12.5513 10.8437L12.5513 10.8437L14.0513 10.8437ZM18.7915 4.81934L19.1432 6.27752L20.2915 6.00057L20.2915 4.81934L18.7915 4.81934ZM18.7915 1L18.7915 -0.5L17.2915 -0.5L17.2915 1L18.7915 1ZM21.7085 1L23.2085 1L23.2085 -0.5L21.7085 -0.5L21.7085 1ZM21.7085 4.82031L20.2085 4.82031L20.2085 6.0014L21.3566 6.27846L21.7085 4.82031ZM26.4478 10.8438L24.9478 10.8437C24.9478 13.4384 22.8441 15.542 20.2495 15.542L20.2495 17.042L20.2495 18.542C24.501 18.542 27.9478 15.0952 27.9478 10.8438L26.4478 10.8438ZM20.2495 17.042L20.2496 15.542C17.6549 15.5419 15.5513 13.4382 15.5513 10.8437L14.0513 10.8437L12.5513 10.8437C12.5513 15.0952 15.9982 18.5418 20.2495 18.542L20.2495 17.042ZM14.0513 10.8437L15.5513 10.8438C15.5513 8.63246 17.0815 6.77477 19.1432 6.27752L18.7915 4.81934L18.4398 3.36115C15.063 4.17559 12.5514 7.21376 12.5513 10.8437L14.0513 10.8437ZM18.7915 4.81934L20.2915 4.81934L20.2915 1L18.7915 1L17.2915 1L17.2915 4.81934L18.7915 4.81934ZM18.7915 1L18.7915 2.5L21.7085 2.5L21.7085 1L21.7085 -0.5L18.7915 -0.5L18.7915 1ZM21.7085 1L20.2085 1L20.2085 4.82031L21.7085 4.82031L23.2085 4.82031L23.2085 1L21.7085 1ZM21.7085 4.82031L21.3566 6.27846C23.4182 6.77593 24.9477 8.63278 24.9478 10.8438L26.4478 10.8438L27.9478 10.8437C27.9477 7.21394 25.4366 4.17689 22.0604 3.36217L21.7085 4.82031Z" fill="#121212" mask="url(#path-10-inside-4_94_1069)"/>
</svg>
