<svg width="97" height="82" viewBox="0 0 97 82" fill="none" xmlns="http://www.w3.org/2000/svg">
<path d="M74.7721 63.4288L78.0848 51.0658C78.1886 50.6783 78.2412 50.2788 78.2412 49.8776L78.2412 31.8774C78.2412 31.4762 78.1886 31.0768 78.0848 30.6892L74.7721 18.3263C74.5636 17.5479 74.1538 16.8381 73.5839 16.2683L60.0929 2.77724C59.232 1.91629 58.0643 1.43262 56.8467 1.43262L22.395 1.43261C21.1774 1.43261 20.0097 1.91629 19.1487 2.77724L5.65771 16.2683C5.08788 16.8381 4.67808 17.5479 4.46951 18.3263L1.15687 30.6892C1.05304 31.0767 1.00045 31.4762 1.00045 31.8774L1.00045 49.8776C1.00045 50.2788 1.05304 50.6783 1.15687 51.0658L4.46951 63.4288C4.67808 64.2072 5.08788 64.917 5.65771 65.4868L19.1487 78.9778C20.0097 79.8388 21.1774 80.3224 22.395 80.3224L56.8467 80.3224C58.0643 80.3224 59.232 79.8388 60.0929 78.9778L73.5839 65.4868C74.1538 64.917 74.5636 64.2072 74.7721 63.4288Z" fill="#FFBDDE" stroke="#121212" stroke-width="1.5" stroke-linecap="round" stroke-linejoin="round"/>
<path d="M4.46951 18.3263L1.15687 30.6892C1.05304 31.0767 1.00045 31.4762 1.00045 31.8774L1.00045 36.2867C1.00045 38.8221 3.05584 40.8775 5.59128 40.8775L73.6504 40.8775C76.1858 40.8775 78.2412 38.8221 78.2412 36.2867L78.2412 31.8774C78.2412 31.4762 78.1886 31.0767 78.0848 30.6892L74.7721 18.3263C74.5636 17.5479 74.1538 16.8381 73.5839 16.2683L60.0929 2.77724C59.232 1.91629 58.0643 1.43262 56.8467 1.43262L22.395 1.43261C21.1774 1.43261 20.0097 1.91629 19.1487 2.77724L5.65771 16.2683C5.08788 16.8381 4.67808 17.5479 4.46951 18.3263Z" fill="#E63C23" stroke="#121212" stroke-width="1.5" stroke-linecap="round" stroke-linejoin="round"/>
<path d="M50.6961 59.5427L55.2869 64.1335L59.9985 59.5427L55.2869 54.8311L50.6961 59.5427Z" fill="#E63C23" stroke="#121212" stroke-width="1.5" stroke-linecap="round" stroke-linejoin="round"/>
<path d="M55.2869 64.7378L50.6961 69.4494C53.2411 71.9945 57.3591 72.0212 59.937 69.5094L59.9985 69.4494L55.2869 64.7378Z" fill="#E63C23" stroke="#121212" stroke-width="1.5" stroke-linecap="round" stroke-linejoin="round"/>
<path d="M50.0923 59.4221L45.3806 54.8313C42.8356 57.3763 42.8089 61.4943 45.3206 64.0722L45.3806 64.1338L50.0923 59.4221Z" fill="#E63C23" stroke="#121212" stroke-width="1.5" stroke-linecap="round" stroke-linejoin="round"/>
<path d="M55.2869 54.2271L50.6961 49.5154C53.2411 46.9704 57.3591 46.9436 59.937 49.4554L59.9985 49.5154L55.2869 54.2271Z" fill="#E63C23" stroke="#121212" stroke-width="1.5" stroke-linecap="round" stroke-linejoin="round"/>
<path d="M60.6025 59.4221L65.3142 54.8313C67.8592 57.3763 67.886 61.4943 65.3742 64.0722L65.3142 64.1338L60.6025 59.4221Z" fill="#E63C23" stroke="#121212" stroke-width="1.5" stroke-linecap="round" stroke-linejoin="round"/>
<path d="M45.6219 64.375L50.5752 69.3283L49.0554 70.3407C46.291 72.182 42.933 69.0324 44.5937 66.1559L45.6219 64.375Z" fill="#E63C23" stroke="#121212" stroke-width="1.5" stroke-linecap="round" stroke-linejoin="round"/>
<path d="M65.3034 54.4688L60.3501 49.5155L61.8699 48.5031C64.6343 46.6617 67.9923 49.8113 66.3316 52.6879L65.3034 54.4688Z" fill="#E63C23" stroke="#121212" stroke-width="1.5" stroke-linecap="round" stroke-linejoin="round"/>
<path d="M45.6219 54.4687L50.5752 49.5155L49.0554 48.5031C46.291 46.6617 42.933 49.8113 44.5937 52.6879L45.6219 54.4687Z" fill="#E63C23" stroke="#121212" stroke-width="1.5" stroke-linecap="round" stroke-linejoin="round"/>
<path d="M29.3015 59.5427L24.7107 64.1335L19.999 59.5427L24.7107 54.8311L29.3015 59.5427Z" fill="#E63C23" stroke="#121212" stroke-width="1.5" stroke-linecap="round" stroke-linejoin="round"/>
<path d="M24.7107 64.7378L29.3015 69.4494C26.7565 71.9945 22.6385 72.0212 20.0606 69.5094L19.999 69.4494L24.7107 64.7378Z" fill="#E63C23" stroke="#121212" stroke-width="1.5" stroke-linecap="round" stroke-linejoin="round"/>
<path d="M29.9062 59.4221L34.6179 54.8313C37.1629 57.3763 37.1897 61.4943 34.6779 64.0722L34.6179 64.1338L29.9062 59.4221Z" fill="#E63C23" stroke="#121212" stroke-width="1.5" stroke-linecap="round" stroke-linejoin="round"/>
<path d="M24.7107 54.2271L29.3015 49.5154C26.7565 46.9704 22.6385 46.9436 20.0606 49.4554L19.999 49.5154L24.7107 54.2271Z" fill="#E63C23" stroke="#121212" stroke-width="1.5" stroke-linecap="round" stroke-linejoin="round"/>
<path d="M19.395 59.4221L14.6834 54.8313C12.1383 57.3763 12.1116 61.4943 14.6234 64.0722L14.6834 64.1338L19.395 59.4221Z" fill="#E63C23" stroke="#121212" stroke-width="1.5" stroke-linecap="round" stroke-linejoin="round"/>
<path d="M34.3761 64.375L29.4229 69.3283L30.9427 70.3407C33.707 72.182 37.0651 69.0324 35.4043 66.1559L34.3761 64.375Z" fill="#E63C23" stroke="#121212" stroke-width="1.5" stroke-linecap="round" stroke-linejoin="round"/>
<path d="M14.6942 54.4687L19.6475 49.5155L18.1276 48.5031C15.3633 46.6617 12.0052 49.8113 13.666 52.6879L14.6942 54.4687Z" fill="#E63C23" stroke="#121212" stroke-width="1.5" stroke-linecap="round" stroke-linejoin="round"/>
<path d="M34.3761 54.4688L29.4229 49.5155L30.9427 48.5031C33.707 46.6617 37.0651 49.8113 35.4043 52.6879L34.3761 54.4688Z" fill="#E63C23" stroke="#121212" stroke-width="1.5" stroke-linecap="round" stroke-linejoin="round"/>
<path d="M81.9859 31.9981L78.1199 31.9981L78.1199 49.5753L81.8037 49.5753L88.6305 56.402L91.4092 49.5753L96 49.5753L90.9259 40.7867L96 31.9981L91.4092 31.9981L88.6305 25.3535L81.9859 31.9981Z" fill="#E63C23" stroke="#121212" stroke-width="1.5" stroke-linecap="round" stroke-linejoin="round"/>
</svg>
