<svg width="191" height="213" viewBox="0 0 191 213" fill="none" xmlns="http://www.w3.org/2000/svg">
<path d="M61.4426 131.052L71.5181 131.485C73.0527 131.551 74.5486 131.986 75.8788 132.754L79.1517 134.644L82.4247 136.534C83.7549 137.302 84.88 138.38 85.7044 139.675L91.1174 148.184C93.0259 151.185 93.1078 154.997 91.33 158.076L84.8989 169.215C83.5494 171.553 81.2729 173.209 78.6336 173.774L68.4799 175.948C66.9259 176.281 65.3135 176.22 63.7889 175.772L56.6239 173.663L51.2155 168.513C50.0647 167.417 49.2059 166.05 48.7171 164.538L45.523 154.658C44.6927 152.09 44.9891 149.29 46.3386 146.952L52.7697 135.813C54.5475 132.734 57.8902 130.899 61.4426 131.052Z" fill="#E63C23"/>
<path d="M56.6239 173.663L51.2155 168.513C50.0647 167.417 49.2059 166.05 48.7171 164.538L45.523 154.658C44.6927 152.09 44.9891 149.29 46.3386 146.952L52.7697 135.813C54.5475 132.734 57.8902 130.899 61.4426 131.052L71.5181 131.485C73.0527 131.551 74.5486 131.986 75.8788 132.754L79.1517 134.644M56.6239 173.663L63.7889 175.772C65.3135 176.22 66.9259 176.281 68.4799 175.948L78.6336 173.774C81.2729 173.209 83.5494 171.553 84.8989 169.215L91.33 158.076C93.1078 154.997 93.0259 151.185 91.1174 148.184L85.7044 139.675C84.88 138.38 83.7549 137.302 82.4247 136.534L79.1517 134.644M56.6239 173.663L79.1517 134.644" stroke="#121212" stroke-width="1.5" stroke-linecap="round" stroke-linejoin="round"/>
<path d="M61.4426 131.052L72.6511 131.534C73.4414 131.568 74.2117 131.792 74.8967 132.187C77.2467 133.544 78.0518 136.549 76.6951 138.899L60.7459 166.524C58.6459 170.161 53.6956 170.875 50.6542 167.978C49.8718 167.233 49.2879 166.304 48.9555 165.276L45.523 154.658C44.6927 152.09 44.9891 149.29 46.3386 146.952L52.7697 135.813C54.5475 132.734 57.8902 130.899 61.4426 131.052Z" fill="#EB614D" stroke="#121212" stroke-width="1.5" stroke-linecap="round" stroke-linejoin="round"/>
<path d="M55.389 174.743L55.389 174.474C55.3889 172.709 57.2997 171.605 58.8283 172.488C60.357 173.371 60.357 175.577 58.8283 176.459L57.9067 176.992C57.4648 177.247 57.0978 177.614 56.8426 178.056L56.3707 178.873C54.8704 181.472 51.5475 182.362 48.9489 180.862L45.1617 178.675C44.6546 178.382 44.4809 177.734 44.7737 177.227C45.0664 176.72 45.7148 176.546 46.2218 176.839L48.8887 178.379C50.8686 179.522 53.4003 178.843 54.5434 176.863L55.061 175.967C55.2758 175.595 55.389 175.173 55.389 174.743Z" fill="#AA2C19" stroke="#121212" stroke-width="1.5" stroke-linecap="round" stroke-linejoin="round"/>
<path d="M149.862 98.0423L97.7276 112.012C97.5276 112.065 97.4089 112.271 97.4625 112.471L105.32 141.796C106.338 145.595 110.243 147.85 114.042 146.832L114.766 146.638C118.165 145.727 120.183 142.233 119.272 138.834L118.738 136.843C118.122 134.543 119.487 132.18 121.786 131.563C124.086 130.947 126.449 132.312 127.065 134.611L127.502 136.241C128.359 139.44 131.647 141.338 134.847 140.481L136.114 140.142C140.013 139.097 142.327 135.089 141.282 131.19L140.114 126.83C138.75 121.74 141.77 116.508 146.86 115.144L153.936 113.248C158.135 112.123 160.627 107.807 159.502 103.608C158.377 99.409 154.061 96.9172 149.862 98.0423Z" stroke="#121212" stroke-width="1.5" stroke-linecap="round" stroke-linejoin="round"/>
<path d="M149.862 98.0423L97.7276 112.012C97.5276 112.065 97.4089 112.271 97.4625 112.471L105.32 141.796C106.338 145.595 110.243 147.85 114.042 146.832L114.766 146.638C118.165 145.727 120.183 142.233 119.272 138.834L118.738 136.843C118.122 134.543 119.487 132.18 121.786 131.563C124.086 130.947 126.449 132.312 127.065 134.611L127.502 136.241C128.359 139.44 131.647 141.338 134.847 140.481L136.114 140.142C140.013 139.097 142.327 135.089 141.282 131.19L140.114 126.83C138.75 121.74 141.77 116.508 146.86 115.144L153.936 113.248C158.135 112.123 160.627 107.807 159.502 103.608C158.377 99.409 154.061 96.9172 149.862 98.0423Z" fill="#01A755" stroke="#121212" stroke-width="1.5" stroke-linecap="round" stroke-linejoin="round"/>
<path d="M82.7271 136.402L90.2923 123.299C91.5575 121.108 93.6415 119.509 96.0858 118.854L106.388 116.093M150.557 104.258L128.111 110.273M128.111 110.273L134.125 132.719M128.111 110.273L106.388 116.093M106.388 116.093L110.85 132.747" stroke="#121212" stroke-width="1.5" stroke-linecap="round" stroke-linejoin="round"/>
<path d="M75.725 55.2389L89.6943 107.373C89.7479 107.573 89.6292 107.778 89.4293 107.832L60.1038 115.69C56.3048 116.708 52.3998 114.453 51.3819 110.654L51.1878 109.93C50.277 106.531 52.2943 103.037 55.6934 102.126L57.6846 101.593C59.9841 100.977 61.3487 98.613 60.7325 96.3135C60.1164 94.0141 57.7529 92.6495 55.4534 93.2657L53.8242 93.7022C50.625 94.5594 47.3366 92.6609 46.4794 89.4617L46.1399 88.1945C45.0952 84.2955 47.409 80.2878 51.308 79.243L55.6685 78.0746C60.7584 76.7108 63.779 71.479 62.4152 66.3891L60.5192 59.3133C59.3941 55.1143 61.886 50.7983 66.0849 49.6732C70.2839 48.5481 74.5999 51.04 75.725 55.2389Z" fill="#01A755" stroke="#121212" stroke-width="1.5" stroke-linecap="round" stroke-linejoin="round"/>
<path d="M76.0709 132.559L83.636 119.456C84.9013 117.264 85.2441 114.66 84.5892 112.216L81.8287 101.914M69.9936 57.7444L76.0082 80.191M76.0082 80.191L53.5616 86.2056M76.0082 80.191L81.8287 101.914M81.8287 101.914L65.1748 106.376" stroke="#121212" stroke-width="1.5" stroke-linecap="round" stroke-linejoin="round"/>
<path d="M148.379 92.6187L105.239 104.178C100.105 105.554 94.8371 102.469 93.5239 97.3196L82.3308 53.425C81.3869 49.7236 83.6156 45.9461 87.3052 44.9575C91.0043 43.9663 94.8269 46.156 95.818 49.8551L96.6911 53.1135C97.2001 55.013 99.1526 56.1403 101.052 55.6313C102.952 55.1223 104.079 53.1699 103.57 51.2703L102.503 47.2879C101.405 43.1889 103.837 38.9756 107.936 37.8773L111.01 37.0536C113.411 36.4102 115.879 37.8351 116.523 40.2363C117.561 44.1096 122.763 44.7945 124.768 41.3218L129.34 33.4032C131.353 29.9172 135.81 28.7228 139.296 30.7354C142.782 32.7481 143.977 37.2056 141.964 40.6916L137.392 48.6102C135.387 52.0829 138.582 56.2462 142.455 55.2084C144.856 54.565 147.324 55.9899 147.968 58.391L148.792 61.4653C149.89 65.5643 147.457 69.7775 143.358 70.8758L139.376 71.9429C137.476 72.4519 136.349 74.4044 136.858 76.3039C137.367 78.2034 139.32 79.3307 141.219 78.8217L144.766 77.8712C148.392 76.8998 152.158 78.8629 153.438 82.3912L153.55 82.699C155.067 86.8819 152.677 91.467 148.379 92.6187Z" fill="#82E1B2" stroke="#121212" stroke-width="1.5" stroke-linecap="round" stroke-linejoin="round"/>
<path d="M79.611 134.909L101.344 97.2667M136.063 37.131L117.246 69.7236M117.246 69.7236L140.416 63.5151M117.246 69.7236L111.037 46.5529M117.246 69.7236L101.344 97.2667M101.344 97.2667L123.066 91.4462M101.344 97.2667L95.5232 75.5442M144.789 85.6256L123.066 91.4462M123.066 91.4462L120.253 80.9469M89.7027 53.8216L95.5232 75.5442M95.5232 75.5442L106.022 72.7309" stroke="#121212" stroke-width="1.5" stroke-linecap="round" stroke-linejoin="round"/>
</svg>
