<svg width="91" height="166" viewBox="0 0 91 166" fill="none" xmlns="http://www.w3.org/2000/svg">
<path d="M28.0274 73.9251L28.0274 32.7383C28.0274 23.0679 35.8668 15.2285 45.5372 15.2285C55.2075 15.2285 63.0469 23.0679 63.0469 32.7383L63.0469 73.9251C63.0469 83.5545 68.1842 92.4525 76.5235 97.2672C84.8628 102.082 90.0001 110.98 90.0001 120.609V127.032C90.0001 148.062 72.9522 165.11 51.9225 165.11H39.1518C18.1221 165.11 1.07422 148.062 1.07422 127.032L1.07422 120.609C1.07422 110.98 6.21146 102.082 14.5508 97.2672C22.8901 92.4525 28.0274 83.5545 28.0274 73.9251Z" fill="#FFDF2B" stroke="#121212" stroke-width="1.5" stroke-linecap="round" stroke-linejoin="round"/>
<path d="M62.7054 74.1972L62.7054 30.9562C62.7054 22.5265 55.8718 15.6929 47.4421 15.6929C46.243 15.6929 45.271 16.6649 45.271 17.8639L45.271 161.241C45.271 163.377 47.003 165.109 49.1394 165.109H52.8597C73.119 165.109 89.5425 148.686 89.5425 128.426V119.176C89.5425 110.548 84.9417 102.574 77.4716 98.2562L76.1449 97.4893C67.8278 92.6816 62.7054 83.8039 62.7054 74.1972Z" fill="#ECAE11" stroke="#121212" stroke-width="1.5" stroke-linecap="round" stroke-linejoin="round"/>
<path d="M45.5951 147.546L45.5951 104.336C45.5951 101.601 42.5509 99.9654 40.2705 101.476L26.5998 110.53C14.7993 118.345 15.2933 135.83 27.5164 142.966L40.4351 150.509C42.722 151.844 45.5951 150.195 45.5951 147.546Z" fill="#FFF4E7" stroke="#121212" stroke-width="1.5" stroke-linecap="round" stroke-linejoin="round"/>
<path d="M35.2204 135.193L40.4495 129.509V137.233C40.4495 139.495 38.0493 140.949 36.0438 139.903C34.2867 138.986 33.8785 136.652 35.2204 135.193Z" fill="#FCD433" stroke="#121212" stroke-width="1.5" stroke-linecap="round" stroke-linejoin="round"/>
<path d="M29.1056 127.863L36.8222 127.541L31.361 133.003C29.7615 134.602 27.0356 133.934 26.3573 131.776C25.7631 129.885 27.1254 127.945 29.1056 127.863Z" fill="#FCD433" stroke="#121212" stroke-width="1.5" stroke-linecap="round" stroke-linejoin="round"/>
<path d="M40.485 115.167L40.5752 122.89L35.2801 117.267C33.7293 115.621 34.479 112.916 36.6563 112.303C38.5641 111.765 40.4619 113.185 40.485 115.167Z" fill="#FCD433" stroke="#121212" stroke-width="1.5" stroke-linecap="round" stroke-linejoin="round"/>
<path d="M31.3348 119.134L37.0186 124.364L29.2953 124.364C27.0333 124.364 25.5784 121.963 26.6247 119.958C27.5415 118.201 29.8762 117.793 31.3348 119.134Z" fill="#FCD433" stroke="#121212" stroke-width="1.5" stroke-linecap="round" stroke-linejoin="round"/>
<path d="M36.4459 9.59176L40.4423 2.66973C40.9299 1.82504 41.8312 1.30469 42.8066 1.30469L48.8376 1.30469C49.813 1.30469 50.7142 1.82504 51.2019 2.66972L55.1983 9.59176C55.8162 10.6619 55.6382 12.0135 54.7645 12.8872L50.4932 17.1585C49.9812 17.6705 49.2868 17.9581 48.5628 17.9581L43.0814 17.9581C42.3574 17.9581 41.663 17.6705 41.151 17.1585L36.8797 12.8872C36.006 12.0135 35.828 10.6619 36.4459 9.59176Z" fill="#01A755" stroke="#121212" stroke-width="1.5" stroke-linecap="round" stroke-linejoin="round"/>
</svg>
