<svg width="88" height="104" viewBox="0 0 88 104" fill="none" xmlns="http://www.w3.org/2000/svg">
<path d="M59.573 32.2095H43.7931V98.2082C43.7931 100.714 46.0036 102.645 48.4868 102.307L58.809 100.904C62.9343 100.343 66.8523 98.7539 70.2023 96.2821L76.3165 91.7706C82.6576 87.0918 86.3999 79.6797 86.3999 71.7993V59.0364C86.3999 52.4538 83.785 46.1409 79.1304 41.4864L77.123 39.4789C72.4685 34.8244 66.1555 32.2095 59.573 32.2095Z" fill="#E63C23" stroke="black" stroke-width="1.5" stroke-linecap="round"/>
<path d="M28.427 32.2095H44.2069V98.2082C44.2069 100.714 41.9964 102.645 39.5132 102.307L29.191 100.904C25.0657 100.343 21.1477 98.7539 17.7977 96.2821L11.6835 91.7706C5.34242 87.0918 1.6001 79.6797 1.6001 71.7993V59.0364C1.6001 52.4538 4.215 46.1409 8.86956 41.4864L10.877 39.4789C15.5315 34.8244 21.8445 32.2095 28.427 32.2095Z" fill="#B11902" stroke="black" stroke-width="1.5" stroke-linecap="round"/>
<path d="M69.7216 50.2999L67.054 47.4272C65.1464 45.3728 62.4696 44.2056 59.6662 44.2056C54.0982 44.2056 49.5845 48.7193 49.5845 54.2873V85.4445C49.5845 89.2938 52.8818 92.3169 56.7167 91.9834C58.2552 91.8496 59.6973 91.1777 60.7893 90.0857L69.0021 81.8728C72.7257 78.1492 74.8176 73.0988 74.8176 67.8328V63.2773C74.8176 58.4634 72.9972 53.8275 69.7216 50.2999Z" fill="#FF8F7E" fill-opacity="0.45" stroke="black" stroke-width="1.5"/>
<path d="M55.3755 69.8526L61.6349 73.1619C63.713 71.6878 63.8983 68.6497 61.994 66.957L55.3755 69.8526Z" fill="#FFF4E7" stroke="#121212" stroke-width="1.5" stroke-linecap="round" stroke-linejoin="round"/>
<path d="M55.3755 63.2345L61.6349 66.5437C63.713 65.0696 63.8983 62.0316 61.994 60.3389L55.3755 63.2345Z" fill="#FFF4E7" stroke="#121212" stroke-width="1.5" stroke-linecap="round" stroke-linejoin="round"/>
<path d="M55.3755 56.6153L61.6349 59.9246C63.713 58.4505 63.8983 55.4124 61.994 53.7197L55.3755 56.6153Z" fill="#FFF4E7" stroke="#121212" stroke-width="1.5" stroke-linecap="round" stroke-linejoin="round"/>
<path d="M55.3755 76.4713L61.6349 79.7806C63.713 78.3064 63.8983 75.2684 61.994 73.5757L55.3755 76.4713Z" fill="#FFF4E7" stroke="#121212" stroke-width="1.5" stroke-linecap="round" stroke-linejoin="round"/>
<path d="M51.7421 56.6478L50.9516 56.7873C50.1609 56.9269 49.5845 57.6139 49.5845 58.4168V75.5578C49.5845 76.645 50.615 77.4367 51.6654 77.1566L53.1775 76.7533C54.372 76.4348 54.8081 74.9666 53.9811 74.0477L53.5039 73.5175C52.8445 72.7848 53.1885 71.6143 54.1395 71.3549C55.1774 71.0718 55.462 69.7346 54.6294 69.0534L53.852 68.4173C52.9754 67.7001 53.0624 66.3339 54.0229 65.7336L54.7221 65.2966C56.0202 64.4853 55.5598 62.4908 54.0375 62.3306C52.7164 62.1915 52.1228 60.6025 53.0292 59.6313L53.2392 59.4063C54.3232 58.2448 53.3066 56.3717 51.7421 56.6478Z" fill="#FFF4E7" stroke="black" stroke-width="1.5"/>
<path d="M42.1385 2.42612V25.1287C42.1385 26.4196 40.7262 27.2133 39.6235 26.5421L32.6243 22.2817L27.5563 18.8569C26.1017 17.8738 24.3191 19.5347 25.1969 21.0551L26.161 22.7251C27.0075 24.1911 25.3668 25.8318 23.9008 24.9854L21.6944 23.7115C20.0189 22.7441 18.329 24.9464 19.6971 26.3145L25.9348 32.5522C26.2451 32.8625 26.666 33.0368 27.1048 33.0368H64.0228C64.6139 33.0368 65.1602 32.7215 65.4558 32.2095L70.9026 22.7753C71.749 21.3092 70.1084 19.6686 68.6423 20.515L59.0111 26.0756C57.7345 26.8127 56.204 25.6383 56.5855 24.2144L57.5002 20.8006C57.9384 19.1655 55.929 18.0054 54.732 19.2024L48.6861 25.2483C47.6437 26.2907 45.8614 25.5524 45.8614 24.0783V2.42612C45.8614 1.51229 45.1206 0.771484 44.2068 0.771484H43.7931C42.8793 0.771484 42.1385 1.51229 42.1385 2.42612Z" fill="#01A755" stroke="black" stroke-width="1.5"/>
</svg>
