<svg width="280" height="216" viewBox="0 0 280 216" fill="none" xmlns="http://www.w3.org/2000/svg">
<path d="M141.164 152.126L157.913 151.622C162.056 144.446 156.645 135.524 148.367 135.881L131.881 136.593C127.825 143.619 133.054 152.37 141.164 152.126Z" fill="#FCD433" stroke="#121212" stroke-width="2.26664" stroke-linecap="round" stroke-linejoin="round"/>
<path d="M136.84 187.012L148.239 174.906C150.149 172.877 150.872 170.004 150.151 167.313C148.509 161.185 140.749 159.284 136.46 163.959L125.22 176.214C123.387 178.212 122.702 181.008 123.404 183.628C125.012 189.628 132.581 191.535 136.84 187.012Z" fill="#FCD433" stroke="#121212" stroke-width="2.26664" stroke-linecap="round" stroke-linejoin="round"/>
<path d="M158.828 170.518L159.332 153.769C166.508 149.626 175.43 155.037 175.073 163.315L174.362 179.8C167.335 183.857 158.584 178.627 158.828 170.518Z" fill="#FCD433" stroke="#121212" stroke-width="2.26664" stroke-linecap="round" stroke-linejoin="round"/>
<path d="M161.968 131.328L178.717 130.824C182.859 123.648 177.448 114.726 169.17 115.083L152.685 115.795C148.629 122.821 153.858 131.572 161.968 131.328Z" fill="#FCD433" stroke="#121212" stroke-width="2.26664" stroke-linecap="round" stroke-linejoin="round"/>
<path d="M179.632 149.72L180.136 132.971C187.312 128.829 196.234 134.24 195.877 142.518L195.165 159.003C188.139 163.059 179.388 157.83 179.632 149.72Z" fill="#FCD433" stroke="#121212" stroke-width="2.26664" stroke-linecap="round" stroke-linejoin="round"/>
<path d="M182.769 110.527L199.518 110.023C203.661 102.848 198.25 93.9252 189.972 94.2825L173.486 94.9939C169.43 102.02 174.659 110.771 182.769 110.527Z" fill="#FCD433" stroke="#121212" stroke-width="2.26664" stroke-linecap="round" stroke-linejoin="round"/>
<path d="M200.433 128.921L200.937 112.172C208.113 108.029 217.035 113.44 216.678 121.718L215.967 138.203C208.94 142.26 200.189 137.03 200.433 128.921Z" fill="#FCD433" stroke="#121212" stroke-width="2.26664" stroke-linecap="round" stroke-linejoin="round"/>
<path d="M203.57 89.7268L220.319 89.2229C224.461 82.0473 219.05 73.1249 210.772 73.4822L194.287 74.1936C190.231 81.2198 195.46 89.9709 203.57 89.7268Z" fill="#FCD433" stroke="#121212" stroke-width="2.26664" stroke-linecap="round" stroke-linejoin="round"/>
<path d="M221.234 108.12L221.738 91.3713C228.914 87.2285 237.836 92.6396 237.479 100.918L236.767 117.403C229.741 121.459 220.99 116.23 221.234 108.12Z" fill="#FCD433" stroke="#121212" stroke-width="2.26664" stroke-linecap="round" stroke-linejoin="round"/>
<path d="M224.37 68.9251L241.119 68.4211C245.262 61.2455 239.851 52.3232 231.573 52.6804L215.087 53.3919C211.031 60.4181 216.26 69.1691 224.37 68.9251Z" fill="#FCD433" stroke="#121212" stroke-width="2.26664" stroke-linecap="round" stroke-linejoin="round"/>
<path d="M242.034 87.3186L242.538 70.5696C249.714 66.4268 258.636 71.8379 258.279 80.1159L257.568 96.601C250.541 100.658 241.79 95.4281 242.034 87.3186Z" fill="#FCD433" stroke="#121212" stroke-width="2.26664" stroke-linecap="round" stroke-linejoin="round"/>
<path d="M250.171 61.5346L148.535 163.17" stroke="#121212" stroke-width="2.26664" stroke-linecap="round" stroke-linejoin="round"/>
<path d="M139.233 63.7609L122.484 64.2649C118.341 71.4405 123.752 80.3629 132.03 80.0056L148.515 79.2942C152.572 72.268 147.342 63.5169 139.233 63.7609Z" fill="#FCD433" stroke="#121212" stroke-width="2.26664" stroke-linecap="round" stroke-linejoin="round"/>
<path d="M143.557 28.8747L132.158 40.9811C130.248 43.0096 129.524 45.8823 130.245 48.5735C131.887 54.7016 139.648 56.6026 143.936 51.9273L155.176 39.6731C157.009 37.6747 157.694 34.8784 156.992 32.259C155.385 26.2586 147.815 24.3519 143.557 28.8747Z" fill="#FCD433" stroke="#121212" stroke-width="2.26664" stroke-linecap="round" stroke-linejoin="round"/>
<path d="M121.567 45.3689L121.063 62.1179C113.888 66.2607 104.965 60.8496 105.323 52.5716L106.034 36.0865C113.06 32.0299 121.811 37.2594 121.567 45.3689Z" fill="#FCD433" stroke="#121212" stroke-width="2.26664" stroke-linecap="round" stroke-linejoin="round"/>
<path d="M118.428 84.5578L101.679 85.0618C97.5366 92.2374 102.948 101.16 111.226 100.802L127.711 100.091C131.767 93.0648 126.538 84.3138 118.428 84.5578Z" fill="#FCD433" stroke="#121212" stroke-width="2.26664" stroke-linecap="round" stroke-linejoin="round"/>
<path d="M100.764 66.1653L100.26 82.9143C93.0844 87.0571 84.162 81.646 84.5193 73.368L85.2308 56.8829C92.2569 52.8263 101.008 58.0558 100.764 66.1653Z" fill="#FCD433" stroke="#121212" stroke-width="2.26664" stroke-linecap="round" stroke-linejoin="round"/>
<path d="M97.6272 105.359L80.8782 105.863C76.7353 113.039 82.1465 121.961 90.4244 121.604L106.91 120.892C110.966 113.866 105.737 105.115 97.6272 105.359Z" fill="#FCD433" stroke="#121212" stroke-width="2.26664" stroke-linecap="round" stroke-linejoin="round"/>
<path d="M79.9627 86.9656L79.4587 103.715C72.2831 107.857 63.3608 102.446 63.718 94.1683L64.4295 77.6832C71.4557 73.6266 80.2067 78.8561 79.9627 86.9656Z" fill="#FCD433" stroke="#121212" stroke-width="2.26664" stroke-linecap="round" stroke-linejoin="round"/>
<path d="M76.8259 126.159L60.0769 126.663C55.9341 133.839 61.3452 142.761 69.6232 142.404L86.1083 141.693C90.1649 134.666 84.9354 125.915 76.8259 126.159Z" fill="#FCD433" stroke="#121212" stroke-width="2.26664" stroke-linecap="round" stroke-linejoin="round"/>
<path d="M59.1614 107.766L58.6574 124.515C51.4818 128.658 42.5595 123.247 42.9168 114.969L43.6282 98.4835C50.6544 94.4269 59.4054 99.6564 59.1614 107.766Z" fill="#FCD433" stroke="#121212" stroke-width="2.26664" stroke-linecap="round" stroke-linejoin="round"/>
<path d="M56.0257 146.961L39.2766 147.465C35.1338 154.64 40.5449 163.563 48.8229 163.205L65.308 162.494C69.3646 155.468 64.1351 146.717 56.0257 146.961Z" fill="#FCD433" stroke="#121212" stroke-width="2.26664" stroke-linecap="round" stroke-linejoin="round"/>
<path d="M38.3611 128.567L37.8571 145.316C30.6815 149.459 21.7592 144.048 22.1165 135.77L22.8279 119.285C29.8541 115.228 38.6051 120.458 38.3611 128.567Z" fill="#FCD433" stroke="#121212" stroke-width="2.26664" stroke-linecap="round" stroke-linejoin="round"/>
<path d="M30.2255 154.352L131.861 52.7163" stroke="#121212" stroke-width="2.26664" stroke-linecap="round" stroke-linejoin="round"/>
</svg>
